<svg id="Capa_1" enable-background="new 0 0 512.02 512.02" height="512" viewBox="0 0 512.02 512.02" width="512" xmlns="http://www.w3.org/2000/svg"><g id="XMLID_773_"><path id="XMLID_1376_" d="m409.439 226.911c28.528-22.17 46.883-56.809 46.883-95.736 0-66.923-54.252-121.175-121.175-121.175h-79.137z" fill="#ffcb7c"/><path id="XMLID_828_" d="m438.237 270.476-40.198-60.793v-15.298c0-35.054-8.759-69.204-25.06-99.528 6.698 23.761 5.668 49.959-5.229 74.803-9.457 21.56-23.01 41.756-40.661 59.407-20.122 20.122-43.551 34.92-68.538 44.395-39.625 15.026-64.964 54.119-62.263 96.411.013.2.013.21.009.157 2.822 39.324-29.795 68.252-63.827 67.078l-26.461 64.909h180.109l25.154-64.914h56.914c18.923 0 34.264-15.34 34.264-34.264v-28.489l-37.747-14.309 37.639-17.031h.108v-35.993l33.094-22.724c4.517-3.101 5.714-9.248 2.693-13.817z" fill="#ffd4be"/><g id="XMLID_1124_"><path id="XMLID_333_" d="m502.01 368.68h-34.31c-5.522 0-10-4.477-10-10s4.478-10 10-10h34.31c5.522 0 10 4.477 10 10s-4.478 10-10 10z"/></g><g id="XMLID_1123_"><path id="XMLID_332_" d="m456.323 324.545c-4.051 0-7.861-2.478-9.366-6.495-1.938-5.171.684-10.935 5.855-12.873l25.834-9.679c5.178-1.938 10.936.685 12.873 5.856 1.938 5.171-.684 10.935-5.855 12.873l-25.834 9.679c-1.156.434-2.342.639-3.507.639z"/></g><g id="XMLID_1122_"><path id="XMLID_331_" d="m482.153 422.499c-1.165 0-2.351-.206-3.507-.639l-25.834-9.679c-5.172-1.938-7.793-7.701-5.855-12.873s7.697-7.795 12.873-5.856l25.834 9.679c5.172 1.938 7.793 7.701 5.855 12.873-1.504 4.016-5.316 6.495-9.366 6.495z"/></g><path id="XMLID_771_" d="m283.573 13.689c-13.419-2.412-27.238-3.672-41.352-3.672-127.963-.002-232.305 104.42-232.211 232.383.054 73.594 34.345 139.177 87.805 181.683 41.651 33.116 102.288-1.026 98.484-54.054.004.053.004.043-.009-.157-2.701-42.291 22.638-81.385 62.263-96.411 24.987-9.475 48.416-24.273 68.538-44.395 17.651-17.651 31.204-37.847 40.661-59.407 29.239-66.666-12.531-143.089-84.179-155.97z" fill="#ffcb7c"/><path id="XMLID_334_" d="m422.7 228.848c27.828-24.89 43.621-59.987 43.621-97.673 0-72.33-58.844-131.175-131.174-131.175h-92.931c-.004.005-.006.011-.01.017-48.248.002-94.902 14.26-134.914 41.23-4.58 3.087-5.79 9.302-2.703 13.881 3.087 4.58 9.302 5.788 13.881 2.703 36.702-24.739 79.495-37.815 123.751-37.814 13.296 0 26.613 1.182 39.583 3.514 31.48 5.66 58.175 25.112 73.239 53.371 14.809 27.778 16.102 60.123 3.549 88.742-9.216 21.014-22.194 39.973-38.574 56.353-18.665 18.666-40.538 32.836-65.012 42.116-21.464 8.139-39.396 22.629-51.855 41.902-12.479 19.303-18.303 41.606-16.841 64.493v.004c.004.078.009.156.014.234 1.519 21.161-9.229 40.474-28.05 50.399-18.104 9.547-38.379 7.719-54.235-4.888-53.351-42.42-83.978-105.791-84.028-173.864-.032-44.315 13.044-87.165 37.815-123.916 3.087-4.58 1.877-10.795-2.703-13.881-4.579-3.088-10.796-1.877-13.881 2.703-27.011 40.07-41.267 86.79-41.232 135.108.055 74.2 33.436 143.271 91.581 189.503 8.137 6.469 17.266 10.892 26.803 13.238l-21.644 53.094c-2.085 5.114.37 10.95 5.484 13.035 1.236.504 2.515.742 3.771.742 3.945 0 7.683-2.349 9.264-6.228l23.98-58.825c9.638-.652 19.272-3.342 28.354-8.132 25.925-13.673 40.738-40.278 38.674-69.446-.002-.051-.005-.102-.009-.153-2.434-38.106 20.002-72.837 55.829-86.423 27.138-10.29 51.383-25.994 72.063-46.674 18.146-18.145 32.527-39.16 42.748-62.461 2.902-6.617 5.18-13.401 6.85-20.278 2.819 13.458 4.281 27.203 4.281 40.987v15.298c0 1.961.577 3.879 1.658 5.516l40.188 60.851-33.094 22.724c-2.717 1.865-4.34 4.949-4.34 8.244v29.492l-31.869 14.421c-3.683 1.666-5.999 5.384-5.873 9.424.126 4.039 2.672 7.605 6.45 9.038l31.292 11.862v21.586c0 13.379-10.885 24.264-24.264 24.264h-96.511c-5.522 0-10 4.477-10 10s4.478 10 10 10h24.997l-19.879 51.301c-1.996 5.15.562 10.942 5.711 12.938 1.188.46 2.409.679 3.611.679 4.008 0 7.791-2.428 9.326-6.39l22.679-58.527h50.065c24.407 0 44.264-19.856 44.264-44.264v-28.493c0-4.273-2.686-7.91-6.457-9.342l.001-.009-15.232-5.774 15.02-6.796c3.882-1.374 6.667-5.067 6.667-9.419v-30.729l28.754-19.744c8.952-6.146 11.362-18.517 5.374-27.576zm-11.17-16.893-3.491-5.279v-12.291c0-35.876-8.897-71.54-25.714-103.23-2.357-8.096-5.563-16.025-9.634-23.661-10.61-19.905-26.063-36.142-44.671-47.494h7.127c61.302 0 111.175 49.873 111.175 111.175-.001 30.94-12.563 59.822-34.792 80.78z"/><g id="XMLID_1319_"><g id="XMLID_1320_"><path id="XMLID_325_" d="m78.149 88.158c-2.63 0-5.2-1.06-7.07-2.93-1.859-1.86-2.93-4.43-2.93-7.07 0-2.63 1.07-5.21 2.93-7.07 1.87-1.86 4.44-2.93 7.07-2.93s5.21 1.07 7.07 2.93c1.87 1.86 2.93 4.44 2.93 7.07 0 2.64-1.06 5.21-2.93 7.07-1.86 1.87-4.44 2.93-7.07 2.93z"/></g></g></g></svg>