<svg id="Layer_1" enable-background="new 0 0 501.387 501.387" height="512" viewBox="0 0 501.387 501.387" width="512" xmlns="http://www.w3.org/2000/svg"><path d="m463.399 79.591c-54.591-63.825-147.483-72.705-212.717-25.57-104.991-75.54-250.244.088-250.682 127.938 0 92.202 48.999 167.075 120.451 223.617 57.788 45.729 115.762 68.034 122.206 70.436 4.921 1.871 10.91 1.962 16.095-.008 6.419-2.392 64.386-24.691 122.176-70.421 71.472-56.555 120.459-131.414 120.459-223.678-.128-37.49-13.619-73.826-37.988-102.314z" fill="#e88793"/><path d="m250.682 54.021c-102.981-74.094-250.236-2.081-250.682 127.938 0 70.352 28.516 131.792 76.676 183.443 71.093 9.133 154.595 5.761 224.893-35.96 64.779-38.446 128.192-50.364 180.5-51.036 12.83-30.721 19.318-63 19.318-96.502-.446-130.531-148.239-201.921-250.705-127.883z" fill="#fc93a0"/><path d="m1.516 160.503c32.574-12.181 85.714-22.247 131.564 14.597 57.292 46.039 262.693 44.061 367.633-7.224-11.384-122.82-152.048-184.653-250.031-113.855-96.381-69.345-232.924-11.224-249.166 106.482z" fill="#fda5b7"/><path d="m463.399 79.591c-54.591-63.825-147.483-72.705-212.717-25.57-104.991-75.54-250.244.088-250.682 127.938 0 92.202 48.999 167.075 120.451 223.617 57.788 45.729 115.762 68.034 122.206 70.436 4.921 1.871 10.91 1.962 16.095-.008 6.419-2.392 64.386-24.691 122.176-70.421 71.472-56.555 120.459-131.414 120.459-223.678-.128-37.49-13.619-73.826-37.988-102.314zm-212.708 365.221c-28.005-11.116-218.691-93.074-218.691-262.799.367-107.274 126.804-165.2 208.293-95.5 5.987 5.122 14.812 5.122 20.8 0 82.277-70.377 207.907-10.855 208.293 95.471-.024 169.631-190.391 251.586-218.695 262.828z"/><path d="m401.162 122.555c-7.506 4.665-9.809 14.53-5.145 22.035 13.663 21.983 15.889 54.875 6.106 90.24-2.819 10.194 4.866 20.27 15.43 20.27 7.015 0 13.451-4.649 15.412-11.738 12.336-44.6 8.867-85.677-9.769-115.663-4.663-7.504-14.529-9.811-22.034-5.144z"/><path d="m373.343 88.703c-7.998-2.581-16.584-4.2-25.519-4.812-8.814-.606-16.453 6.053-17.057 14.869s6.054 16.452 14.869 17.056c6.341.435 12.355 1.558 17.878 3.34 8.438 2.724 17.436-1.931 20.141-10.313 2.714-8.409-1.903-17.426-10.312-20.14z"/></svg>