<svg id="Layer_1" enable-background="new 0 0 506.499 506.499" height="512" viewBox="0 0 506.499 506.499" width="512" xmlns="http://www.w3.org/2000/svg"><path d="m481.242 395.211-197.698-197.698c9.939-23.978 13.243-50.72 9.301-76.499-17.59-114.987-160.347-162.164-242.735-78.098-54.698 55.809-54.317 145.219 1.028 200.564 42.499 42.498 104.556 52.174 155.652 30.818l111.077 111.077-19.467 19.467c-15.1 15.099-15.1 39.668 0 54.768l35.537 35.537c15.134 15.134 39.632 15.137 54.768 0l19.642-19.642c9.697 8.015 21.769 12.375 34.51 12.375 48.737 0 72.161-58.894 38.385-92.669z" fill="#dfb7a4"/><path d="m411.397 477.835c-.49-5.904 2.01-13.361-1.946-18.495-191.64-248.706-227.867-240.989-314.041-248.706-56.565-5.066-52.459-98.75-66.086-140.761-13.114 22.004-20.062 47.23-19.938 73.485.487 102.458 105.093 169.522 197.404 130.94l111.077 111.077-19.467 19.467c-15.1 15.099-15.1 39.668 0 54.768l35.537 35.537c15.134 15.134 39.632 15.137 54.768 0l19.642-19.642c.99.819 2.012 1.589 3.05 2.33z" fill="#c69a85"/><path d="m481.242 395.211-197.698-197.698c45.671-110.174-56.307-225.185-171.722-191.565 19.821 42.22 54.953 105.97 90.554 116.762 54.019 16.374-12.536 29.236 98.555 146.277 59.767 62.968 133.906 121.958 196.07 160.899-.879-13.103-6.386-25.302-15.759-34.675z" fill="#e0c8bf"/><path d="m481.242 395.211-197.698-197.698c9.939-23.978 13.243-50.72 9.301-76.499-17.59-114.987-160.347-162.164-242.735-78.098-54.698 55.809-54.317 145.219 1.028 200.564 42.499 42.498 104.556 52.174 155.652 30.818l111.077 111.077-19.467 19.467c-15.1 15.099-15.1 39.668 0 54.768l35.537 35.537c15.134 15.134 39.632 15.137 54.768 0l19.642-19.642c9.697 8.015 21.769 12.375 34.51 12.375 48.737 0 72.161-58.894 38.385-92.669zm-54.143 54.141-7.613-7.613c-6.25-6.248-16.379-6.248-22.627.001-33.727 33.726-31.758 32.75-35.537 32.75-3.88 0-2.263.524-40.293-37.507-2.623-2.623-2.623-6.891-.001-9.513l30.78-30.781c6.249-6.248 6.249-16.379 0-22.627l-130.311-130.311c-4.956-4.956-12.521-6.085-18.679-2.89-41.134 21.33-93.737 15.306-129.054-20.008-42.843-42.845-43.282-112.193-.801-155.539 42.45-43.313 112.71-44.163 156.139-1.81 36.243 35.346 42.53 88.575 21.021 130.052-3.21 6.191-2.041 13.748 2.891 18.679l205.602 205.602c0 .278 6.526 5.39 6.526 15.757-.001 19.688-23.974 29.827-38.043 15.758z"/><circle cx="151.94" cy="142.678" r="40.325"/></svg>