<svg id="Layer_1" data-name="Layer 1" xmlns="http://www.w3.org/2000/svg" viewBox="0 0 176.93 477.73"><title>phone</title><path d="M162.42,75.17,35.21,1.73C31.41-.46,28-.49,25.38,1.2l0,0-20,12,15.3,8.24v341c0,10.69,6.49,23.1,14.51,27.73L151.55,457.3l0,19.27L172,464.31v0c3-1.79,5-5.87,5-11.67V102.9C176.93,92.21,170.43,79.8,162.42,75.17Z" style="fill:#393939"/><path d="M172,464.31v0c3-1.79,5-5.87,5-11.67V102.9a34.57,34.57,0,0,0-2.83-13.08L153.3,102l-33.77,57.1-7.26,275.56h0l39.28,22.68,0,19.27Z" style="fill:#2c2c2c"/><path d="M141.72,87.58,14.51,14.14C6.5,9.51,0,14.42,0,25.11V374.82c0,10.68,6.5,23.1,14.51,27.72L141.72,476c8,4.62,14.51-.29,14.51-11V115.31C156.23,104.62,149.73,92.21,141.72,87.58Z" style="fill:#424242"/><polygon points="146.47 433.88 9.76 354.96 9.76 56.24 146.47 135.16 146.47 433.88" style="fill:#e53935"/><path d="M99.68,79.22,56.55,54.32c-2.69-1.55-4.88.1-4.88,3.69s2.19,7.77,4.88,9.33l43.13,24.9c2.69,1.56,4.88-.1,4.88-3.69S102.37,80.78,99.68,79.22Z" style="fill:#616161"/><path d="M123.68,99.59c0,3.59-2.18,5.25-4.88,3.69s-4.88-5.73-4.88-9.33,2.18-5.25,4.88-3.69S123.68,96,123.68,99.59Z" style="fill:#616161"/><path d="M32.55,47c0-3.59,2.18-5.25,4.88-3.69s4.88,5.73,4.88,9.33-2.18,5.25-4.88,3.69S32.55,50.57,32.55,47Z" style="fill:#616161"/><ellipse cx="78.12" cy="416.84" rx="10.25" ry="18.11" transform="translate(-156.98 63.87) rotate(-23.05)" style="fill:#bdbdbd"/><polygon points="112.27 310.29 43.98 270.87 43.98 179.82 112.27 219.24 112.27 310.29" style="fill:#fafbfb"/><polygon points="83.35 206.27 78.12 203.25 78.12 210.22 83.35 213.24 83.35 206.27" style="fill:#424242"/><polygon points="78.12 217.19 78.12 210.22 72.9 207.2 72.9 214.17 78.12 217.19" style="fill:#424242"/><polygon points="51.99 195.13 51.99 202.1 51.99 209.07 57.22 212.09 62.44 215.1 62.44 208.13 62.44 201.17 57.22 198.15 51.99 195.13" style="fill:#424242"/><polygon points="93.8 219.27 93.8 226.24 93.8 233.21 99.02 236.22 104.25 239.24 104.25 232.27 104.25 225.3 99.02 222.29 93.8 219.27" style="fill:#424242"/><polygon points="62.44 270.84 62.44 263.88 62.44 256.91 57.22 253.89 51.99 250.87 51.99 257.84 51.99 264.81 57.22 267.83 62.44 270.84" style="fill:#424242"/><polygon points="78.12 238.09 83.35 241.11 83.35 234.14 78.12 231.12 78.12 238.09" style="fill:#424242"/><polygon points="88.57 251.09 88.57 244.12 83.35 241.11 83.35 248.07 88.57 251.09" style="fill:#424242"/><polygon points="67.67 245.99 67.67 252.96 72.9 255.97 78.12 258.99 78.12 252.02 78.12 245.06 72.9 242.04 72.9 249.01 67.67 245.99" style="fill:#424242"/><path d="M67.67,246v-7l5.23,3v-7l-5.23-3v-7l5.23,3,5.22,3v-7l-5.22-3-5.23-3V204.18l5.23,3v-7l-5.23-3-20.9-12.07V220L52,223v-7l5.23,3v7l5.22,3v7l-5.22-3v7l5.22,3ZM49.38,211v-20.9l15.68,9.05v20.9Z" style="fill:#424242"/><polygon points="46.77 226.95 46.77 233.92 51.99 236.94 51.99 229.97 46.77 226.95" style="fill:#424242"/><polygon points="93.8 261.07 93.8 268.04 99.02 271.06 99.02 278.03 104.25 281.05 104.25 274.08 104.25 267.11 99.02 264.09 93.8 261.07" style="fill:#424242"/><polygon points="99.02 257.13 104.25 260.14 104.25 253.17 99.02 250.16 99.02 257.13" style="fill:#424242"/><polygon points="93.8 281.98 88.57 278.96 88.57 271.99 88.57 265.03 88.57 258.06 83.35 255.04 83.35 262.01 78.12 258.99 78.12 265.96 83.35 268.98 83.35 275.94 83.35 282.91 88.57 285.93 93.8 288.95 93.8 295.91 99.02 298.93 99.02 291.96 99.02 285 99.02 278.03 93.8 275.01 93.8 281.98" style="fill:#424242"/><polygon points="104.25 294.98 104.25 301.95 109.48 304.96 109.48 298 109.48 291.03 109.48 284.06 104.25 281.05 104.25 288.01 104.25 294.98" style="fill:#424242"/><polygon points="109.48 270.13 109.48 263.16 104.25 260.14 104.25 267.11 109.48 270.13" style="fill:#424242"/><path d="M78.12,272.93v-7l-5.22-3-5.23-3v-7l-10.45-6v-7l-5.23-3v7l-5.22-3v27.87l20.9,12.07v-7l5.23,3v-7Zm-13.06,2.91-15.68-9.06v-20.9l15.68,9.05Z" style="fill:#424242"/><polygon points="72.9 276.88 72.9 283.85 78.12 286.86 83.35 289.88 83.35 282.91 78.12 279.89 72.9 276.88" style="fill:#424242"/><path d="M88.57,209.28v13.94l-5.22-3-5.23-3v7l5.23,3v7l5.22,3,5.23,3v7l5.22,3v-7l5.23,3v7l5.23,3V221.35Zm2.62,25.9v-20.9l15.67,9.05v20.9Z" style="fill:#424242"/><polygon points="40.23 202.28 36.7 200.24 36.7 165.93 62.45 180.79 62.45 185.5 40.23 172.67 40.23 202.28" style="fill:#fdd835"/><polygon points="119.53 324.2 93.8 309.34 93.8 304.64 116.01 317.46 116.01 287.82 119.53 289.86 119.53 324.2" style="fill:#fdd835"/><polygon points="62.45 291.24 36.7 276.37 36.7 242.03 40.23 244.07 40.23 273.71 62.45 286.54 62.45 291.24" style="fill:#fdd835"/><polygon points="119.53 248.07 116.01 246.03 116.01 216.42 93.8 203.6 93.8 198.89 119.53 213.75 119.53 248.07" style="fill:#fdd835"/><path d="M166.81,144.82c-2.28,1.32-4.13,4.85-4.13,7.89v21.53c0,3,1.85,4.44,4.13,3.12s4.13-4.85,4.13-7.88V147.94C170.94,144.9,169.09,143.51,166.81,144.82Z" style="fill:#bdbdbd"/><path d="M166.81,188.85c-2.28,1.31-4.13,4.84-4.13,7.88v21.54c0,3,1.85,4.43,4.13,3.12s4.13-4.85,4.13-7.89V192C170.94,188.93,169.09,187.53,166.81,188.85Z" style="fill:#bdbdbd"/></svg>