<svg id="Layer_1" data-name="Layer 1" xmlns="http://www.w3.org/2000/svg" viewBox="0 0 88 93.24"><title>putra</title><path d="M71.35,41.12c0,14-11.78,23-25.34,25.39,0,0-18.82,3.79-29.65-7.07-7.24-7.25,4.26-18.36,4.26-18.36C23.57,27.25,32,15.69,46,15.69l0,.05A25.36,25.36,0,0,1,71.35,41.12Z" style="fill:#f58a54"/><path d="M63.17,13.88s.48-5.22,6.59-5.11a9.66,9.66,0,0,1,8.44,5.38,9.66,9.66,0,0,1-8.62,5.08C63.47,19.12,63.17,13.88,63.17,13.88Z" style="fill:#9dc85c"/><path d="M69.81,5.85h-.23a9.63,9.63,0,0,0-5.79,1.75A24.11,24.11,0,0,0,59.22.92a2.92,2.92,0,0,0-4.26,4c4.37,4.64,4.81,8.54,4.24,11.2a28,28,0,0,0-12.71-3.3,3.07,3.07,0,0,0-.53-.05c-13.73,0-24.15,10-28,26.86-1.88,2-6.84,7.8-6.9,14a10.76,10.76,0,0,0,3.24,7.84c7.1,7.12,17.05,8.58,24,8.58a43.78,43.78,0,0,0,8.22-.71c16.86-3,27.75-14.1,27.75-28.26A28.2,28.2,0,0,0,66.52,21.7a11.4,11.4,0,0,0,3,.45h.24a12.57,12.57,0,0,0,11-6.73A2.91,2.91,0,0,0,80.87,13,12.58,12.58,0,0,0,69.81,5.85ZM45.43,63.65c-.17,0-17.43,3.33-27-6.27a4.77,4.77,0,0,1-1.54-3.65c0-4.09,4.17-9,5.76-10.55a2.94,2.94,0,0,0,.82-1.49c1.15-5.37,6.11-22.77,22.06-23.08a2.45,2.45,0,0,0,.48,0A22.47,22.47,0,0,1,68.43,41.12C68.43,54.71,56.07,61.74,45.43,63.65ZM69.76,16.31h-.13c-2.61,0-3.33-1.4-3.51-2.38.21-.94.95-2.25,3.46-2.25h.13a6.52,6.52,0,0,1,5,2.42A6.51,6.51,0,0,1,69.76,16.31Z" style="fill:#603916"/><path d="M41.52,23.73c-6.9,1.27-9.1,7.67-9.19,7.94a2.92,2.92,0,0,0,1.85,3.69,3,3,0,0,0,.92.15,2.91,2.91,0,0,0,2.77-2,6.62,6.62,0,0,1,4.71-4,2.92,2.92,0,1,0-1.06-5.74Z" style="fill:#603916"/><path d="M0,75.7v-2H2v2Zm0,1.92V75.7H2v1.92Zm0,2v-2H2v2Zm0,2v-2H2v2Zm0,2v-2H2v2Zm0,2v-2H2v2Zm0,2v-2H2v2Zm0,2v-2H2v2ZM0,91.3V89.38H2V91.3ZM2,75.7v-2h2v2ZM2,91.3V89.38h2V91.3Zm2,0v1.94H2V91.3Zm0-15.6v-2h2v2Zm0,15.6V89.38h2V91.3Zm2,0v1.94h-2V91.3Zm0-15.6v-2H7.8v2Zm0,3.88v-2H7.8v2Zm0,2v-2H7.8v2Zm0,2v-2H7.8v2Zm0,3.92v-2H7.8v2Zm0,2v-2H7.8v2Zm0,1.92V89.38H7.8V91.3Zm1.92,0v1.94H5.88V91.3Zm0-15.6v-2h2v2Zm0,3.88v-2h2v2Zm0,2v-2h2v2Zm0,2v-2h2v2Zm0,3.92v-2h2v2Zm0,2v-2h2v2Zm0,1.92V89.38h2V91.3Zm2,0v1.94h-2V91.3Zm0-15.6v-2h2v2Zm0,3.88v-2h2v2Zm0,2v-2h2v2Zm0,2v-2h2v2Zm0,3.92v-2h2v2Zm0,2v-2h2v2Zm2-13.68v-2h2v2Zm0,11.72v-2h2v2Zm0,2v-2h2v2Zm2-13.68v-2h2v2Zm0,1.92V75.7h2v1.92Zm0,7.84v-2h2v2Zm0,2v-2h2v2Zm0,2v-2h2v2Zm2-11.76V75.7h2v1.92Zm0,2v-2h2v2Zm0,2v-2h2v2Zm0,2v-2h2v2Zm0,2v-2h2v2Zm0,2v-2h2v2Zm0,2v-2h2v2Zm2-9.8v-2h1.92v2Zm0,2v-2h1.92v2Zm0,2v-2h1.92v2Zm0,2v-2h1.92v2Zm0,2v-2h1.92v2Z" style="fill:#4f2d12"/><path d="M17.61,75.7v-2h2v2Zm0,1.92V75.7h2v1.92Zm0,2v-2h2v2Zm0,2v-2h2v2Zm0,2v-2h2v2Zm0,2v-2h2v2Zm0,2v-2h2v2Zm0,2v-2h2v2Zm2-13.68v-2h2v2Zm0,13.68v-2h2v2Zm0,1.92V89.38h2V91.3Zm2-15.6v-2h2v2Zm0,15.6V89.38h2V91.3Zm2,0v1.94h-2V91.3Zm0-15.6v-2h1.92v2Zm0,1.92V75.7h1.92v1.92Zm0,2v-2h1.92v2Zm0,2v-2h1.92v2Zm0,2v-2h1.92v2Zm0,2v-2h1.92v2Zm0,2v-2h1.92v2Zm0,3.88V89.38h1.92V91.3Zm1.92,0v1.94H23.49V91.3Zm0-13.68V75.7h2v1.92Zm0,2v-2h2v2Zm0,2v-2h2v2Zm0,2v-2h2v2Zm0,2v-2h2v2Zm0,2v-2h2v2Zm0,3.88V89.38h2V91.3Zm2,0v1.94h-2V91.3Zm0-15.6v-2h2v2Zm0,1.92V75.7h2v1.92Zm0,2v-2h2v2Zm0,2v-2h2v2Zm0,2v-2h2v2Zm0,2v-2h2v2Zm0,2v-2h2v2Zm0,3.88V89.38h2V91.3Zm2,0v1.94h-2V91.3Zm0-15.6v-2h1.95v2Zm0,15.6V89.38h1.95V91.3Zm1.95,0v1.94H29.34V91.3Zm0-15.6v-2h2v2Zm0,13.68v-2h2v2Zm0,1.92V89.38h2V91.3Zm2,0v1.94h-2V91.3Zm0-15.6v-2h2v2Zm0,1.92V75.7h2v1.92Zm0,2v-2h2v2Zm0,2v-2h2v2Zm0,2v-2h2v2Zm0,2v-2h2v2Zm0,2v-2h2v2Zm0,2v-2h2v2Zm0,1.92V89.38h2V91.3Zm2,0v1.94h-2V91.3Zm0-13.68V75.7h1.93v1.92Zm0,2v-2h1.93v2Zm0,2v-2h1.93v2Zm0,2v-2h1.93v2Zm0,2v-2h1.93v2Zm0,2v-2h1.93v2Zm0,2v-2h1.93v2Zm0,1.92V89.38h1.93V91.3Z" style="fill:#4f2d12"/><path d="M35.21,75.7v-2h2v2Zm0,1.92V75.7h2v1.92Zm0,2v-2h2v2Zm2-3.88v-2h2v2Zm0,3.88v-2h2v2Zm2-3.88v-2h2v2Zm0,3.88v-2h2v2Zm0,2v-2h2v2Zm0,2v-2h2v2Zm0,2v-2h2v2Zm0,2v-2h2v2Zm0,2v-2h2v2Zm0,1.92V89.38h2V91.3Zm2-15.6v-2H43v2Zm0,15.6V89.38H43V91.3Zm1.91,0v1.94H41.1V91.3Zm0-15.6v-2h2v2Zm0,15.6V89.38h2V91.3Zm2,0v1.94H43V91.3Zm0-15.6v-2h2v2Zm0,3.88v-2h2v2Zm0,2v-2h2v2Zm0,2v-2h2v2Zm0,2v-2h2v2Zm0,2v-2h2v2Zm0,2v-2h2v2Zm0,1.92V89.38h2V91.3Zm2,0v1.94H45V91.3Zm0-15.6v-2h2v2Zm0,3.88v-2h2v2Zm0,2v-2h2v2Zm0,2v-2h2v2Zm0,2v-2h2v2Zm0,2v-2h2v2Zm0,2v-2h2v2Zm0,1.92V89.38h2V91.3Zm2,0v1.94h-2V91.3Zm0-15.6v-2h2v2Zm0,1.92V75.7h2v1.92Zm0,2v-2h2v2Zm0,2v-2h2v2Zm2-3.92V75.7h2v1.92Zm0,2v-2h2v2Zm0,2v-2h2v2Z" style="fill:#4f2d12"/><path d="M50.86,75.7v-2h2v2Zm0,1.92V75.7h2v1.92Zm0,2v-2h2v2Zm0,2v-2h2v2Zm0,2v-2h2v2Zm0,2v-2h2v2Zm0,2v-2h2v2Zm0,2v-2h2v2Zm0,1.92V89.38h2V91.3Zm2-15.6v-2h2v2Zm0,15.6V89.38h2V91.3Zm2,0v1.94h-2V91.3Zm0-15.6v-2h2v2Zm0,15.6V89.38h2V91.3Zm2,0v1.94h-2V91.3Zm0-15.6v-2h1.91v2Zm0,3.88v-2h1.91v2Zm0,2v-2h1.91v2Zm0,3.92v-2h1.91v2Zm0,2v-2h1.91v2Zm0,2v-2h1.91v2Zm0,1.92V89.38h1.91V91.3Zm1.91,0v1.94H56.75V91.3Zm0-15.6v-2h2v2Zm0,3.88v-2h2v2Zm0,2v-2h2v2Zm0,3.92v-2h2v2Zm0,2v-2h2v2Zm0,2v-2h2v2Zm0,1.92V89.38h2V91.3Zm2,0v1.94h-2V91.3Zm0-15.6v-2h2v2Zm0,3.88v-2h2v2Zm0,2v-2h2v2Zm0,3.92v-2h2v2Zm0,2v-2h2v2Zm0,2v-2h2v2Zm0,1.92V89.38h2V91.3Zm2-15.6v-2h2v2Zm0,15.6V89.38h2V91.3Zm2,0v1.94h-2V91.3Zm0-15.6v-2h2v2Zm0,1.92V75.7h2v1.92Zm0,5.88v-2h2v2Zm0,7.8V89.38h2V91.3Zm2,0v1.94h-2V91.3Zm0-13.68V75.7h2v1.92Zm0,2v-2h2v2Zm0,2v-2h2v2Zm0,2v-2h2v2Zm0,2v-2h2v2Zm0,2v-2h2v2Zm0,2v-2h2v2Zm0,1.92V89.38h2V91.3Zm2,0v1.94h-2V91.3Zm0-11.72v-2h1.92v2Zm0,2v-2h1.92v2Zm0,2v-2h1.92v2Zm0,2v-2h1.92v2Zm0,2v-2h1.92v2Zm0,2v-2h1.92v2Zm0,1.92V89.38h1.92V91.3Zm1.92,0v1.94H68.47V91.3Z" style="fill:#4f2d12"/><path d="M68.47,77.62V75.7h2v1.92Zm0,2v-2h2v2Zm0,2v-2h2v2Zm0,2v-2h2v2Zm0,2v-2h2v2Zm0,2v-2h2v2Zm0,2v-2h2v2Zm0,1.92V89.38h2V91.3Zm2-15.6v-2h2v2Zm0,1.92V75.7h2v1.92Zm0,13.68V89.38h2V91.3Zm2,0v1.94h-2V91.3Zm0-15.6v-2h2v2Zm0,15.6V89.38h2V91.3Zm2,0v1.94h-2V91.3Zm0-15.6v-2h1.92v2Zm0,3.88v-2h1.92v2Zm0,2v-2h1.92v2Zm0,2v-2h1.92v2Zm0,3.92v-2h1.92v2Zm0,2v-2h1.92v2Zm0,1.92V89.38h1.92V91.3Zm1.92,0v1.94H74.35V91.3Zm0-15.6v-2h2v2Zm0,3.88v-2h2v2Zm0,2v-2h2v2Zm0,2v-2h2v2Zm0,3.92v-2h2v2Zm0,2v-2h2v2Zm0,1.92V89.38h2V91.3Zm2,0v1.94h-2V91.3Zm0-15.6v-2h2v2Zm0,3.88v-2h2v2Zm0,2v-2h2v2Zm0,2v-2h2v2Zm0,3.92v-2h2v2Zm0,2v-2h2v2Zm0,1.92V89.38h2V91.3Zm2-15.6v-2h2v2Zm0,15.6V89.38h2V91.3Zm2,0v1.94h-2V91.3Zm0-15.6v-2h2v2Zm0,1.92V75.7h2v1.92Zm0,13.68V89.38h2V91.3Zm2,0v1.94h-2V91.3Zm0-13.68V75.7h1.95v1.92Zm0,2v-2h1.95v2Zm0,2v-2h1.95v2Zm0,2v-2h1.95v2Zm0,2v-2h1.95v2Zm0,2v-2h1.95v2Zm0,2v-2h1.95v2Zm0,1.92V89.38h1.95V91.3Zm1.95,0v1.94H84.12V91.3Zm0-11.72v-2H88v2Zm0,2v-2H88v2Zm0,2v-2H88v2Zm0,2v-2H88v2Zm0,2v-2H88v2Zm0,2v-2H88v2Zm0,1.92V89.38H88V91.3Zm1.93,0v1.94H86.07V91.3Z" style="fill:#4f2d12"/></svg>