<svg id="Layer_1" data-name="Layer 1" xmlns="http://www.w3.org/2000/svg" viewBox="0 0 430.62 221.98"><title>putra</title><path d="M139.1,78.9c-3.31,32.67-2.5,57.24-22.75,76.68s-26.46,19.71-26.46,19.71L61.54,157.74s4.05-5.4,5.13-23.22,1.89-47.25,1.89-47.25-4.86-11.61,0-19.17S66.4,40.56,66.4,40.56s3.51-8.31,11.07,2.32S142.41,46.23,139.1,78.9Z" style="fill:#f4be92"/><path d="M76.2,41.23l-.8,76.63s1.44,14,17.5,12.06S76.2,41.23,76.2,41.23Z" style="fill:#e5a87f"/><path d="M81.5,120.93s26.34,14.5,20.34,38.76c0,0,21.6-18.7,21.36-30.94,0,0,4.43-.14,8.57-5.47s-50.29-25.43-51.15-3Z" style="fill:#dda783"/><path d="M154.31,45.26c2.6,2.75,2.8,6.77.45,9L132.84,75c-2.35,2.21-6.36,1.79-9-1h0c-2.59-2.75-2.79-6.77-.45-9l21.93-20.7c2.34-2.21,6.35-1.78,8.94,1Z" style="fill:#f4be92"/><path d="M109,128H89.8a13,13,0,0,1-13-13V13a13,13,0,0,1,13-13H109Z" style="fill:#030307"/><path d="M109,0h19.71a13,13,0,0,1,13,13V115a13,13,0,0,1-13,13H109Z" style="fill:#0b0914"/><rect x="80.62" y="14.04" width="56.97" height="92.34" style="fill:#fff"/><path d="M116,115.9a6.15,6.15,0,1,1-6.14-6A6.08,6.08,0,0,1,116,115.9Z" style="fill:#2c2a3f"/><path d="M134.75,8.91a1.89,1.89,0,0,1-1.89,1.89H87.24a1.9,1.9,0,0,1-1.9-1.89h0A1.9,1.9,0,0,1,87.24,7h45.62a1.89,1.89,0,0,1,1.89,1.89Z" style="fill:#2c2a3f"/><polygon points="142.19 47.3 145.16 63.31 141.64 66.64 141.64 47.82 142.19 47.3" style="fill:#dda783"/><rect x="126.64" y="69.59" width="1.77" height="1.77" style="fill:#fff"/><rect x="126.64" y="67.82" width="1.77" height="1.77" style="fill:#fff"/><rect x="126.64" y="66.05" width="1.77" height="1.77" style="fill:#fff"/><rect x="126.64" y="64.29" width="1.77" height="1.77" style="fill:#fff"/><rect x="126.64" y="62.52" width="1.77" height="1.77" style="fill:#fff"/><rect x="126.64" y="60.75" width="1.77" height="1.77" style="fill:#fff"/><rect x="126.64" y="58.99" width="1.77" height="1.77" style="fill:#fff"/><rect x="126.64" y="57.22" width="1.77" height="1.77" style="fill:#fff"/><rect x="126.64" y="55.45" width="1.77" height="1.77" style="fill:#fff"/><rect x="126.64" y="53.68" width="1.77" height="1.77" style="fill:#fff"/><rect x="126.64" y="51.92" width="1.77" height="1.77" style="fill:#fff"/><rect x="126.64" y="50.15" width="1.77" height="1.77" style="fill:#fff"/><rect x="126.64" y="48.38" width="1.77" height="1.77" style="fill:#fff"/><rect x="126.64" y="46.61" width="1.77" height="1.77" style="fill:#fff"/><rect x="126.64" y="44.85" width="1.77" height="1.77" style="fill:#fff"/><rect x="126.64" y="43.08" width="1.77" height="1.77" style="fill:#fff"/><rect x="126.64" y="41.31" width="1.77" height="1.77" style="fill:#fff"/><rect x="126.64" y="39.55" width="1.77" height="1.77" style="fill:#fff"/><rect x="126.64" y="37.78" width="1.77" height="1.77" style="fill:#fff"/><rect x="126.64" y="36.01" width="1.77" height="1.77" style="fill:#fff"/><rect x="126.64" y="34.24" width="1.77" height="1.77" style="fill:#fff"/><rect x="126.64" y="32.48" width="1.77" height="1.77" style="fill:#fff"/><rect x="124.88" y="69.59" width="1.77" height="1.77" style="fill:#fff"/><rect x="124.88" y="67.82" width="1.77" height="1.77"/><rect x="124.88" y="66.05" width="1.77" height="1.77"/><rect x="124.88" y="64.29" width="1.77" height="1.77"/><rect x="124.88" y="62.52" width="1.77" height="1.77" style="fill:#fff"/><rect x="124.88" y="60.75" width="1.77" height="1.77"/><rect x="124.88" y="58.99" width="1.77" height="1.77"/><rect x="124.88" y="57.22" width="1.77" height="1.77"/><rect x="124.88" y="55.45" width="1.77" height="1.77"/><rect x="124.88" y="53.68" width="1.77" height="1.77" style="fill:#fff"/><rect x="124.88" y="51.92" width="1.77" height="1.77"/><rect x="124.88" y="50.15" width="1.77" height="1.77"/><rect x="124.88" y="48.38" width="1.77" height="1.77" style="fill:#fff"/><rect x="124.88" y="46.61" width="1.77" height="1.77"/><rect x="124.88" y="44.85" width="1.77" height="1.77"/><rect x="124.88" y="43.08" width="1.77" height="1.77" style="fill:#fff"/><rect x="124.88" y="41.31" width="1.77" height="1.77"/><rect x="124.88" y="39.55" width="1.77" height="1.77"/><rect x="124.88" y="37.78" width="1.77" height="1.77"/><rect x="124.88" y="36.01" width="1.77" height="1.77"/><rect x="124.88" y="34.24" width="1.77" height="1.77"/><rect x="124.88" y="32.48" width="1.77" height="1.77" style="fill:#fff"/><rect x="123.1" y="69.59" width="1.78" height="1.77" style="fill:#fff"/><rect x="123.1" y="67.82" width="1.78" height="1.77" style="fill:#fff"/><rect x="123.1" y="66.05" width="1.78" height="1.77" style="fill:#fff"/><rect x="123.1" y="64.29" width="1.78" height="1.77" style="fill:#fff"/><rect x="123.1" y="62.52" width="1.78" height="1.77"/><rect x="123.1" y="60.75" width="1.78" height="1.77" style="fill:#fff"/><rect x="123.1" y="58.99" width="1.78" height="1.77" style="fill:#fff"/><rect x="123.1" y="57.22" width="1.78" height="1.77" style="fill:#fff"/><rect x="123.1" y="55.45" width="1.78" height="1.77"/><rect x="123.1" y="53.68" width="1.78" height="1.77" style="fill:#fff"/><rect x="123.1" y="51.92" width="1.78" height="1.77" style="fill:#fff"/><rect x="123.1" y="50.15" width="1.78" height="1.77"/><rect x="123.1" y="48.38" width="1.78" height="1.77" style="fill:#fff"/><rect x="123.1" y="46.61" width="1.78" height="1.77"/><rect x="123.1" y="44.85" width="1.78" height="1.77" style="fill:#fff"/><rect x="123.1" y="43.08" width="1.78" height="1.77" style="fill:#fff"/><rect x="123.1" y="41.31" width="1.78" height="1.77"/><rect x="123.1" y="39.55" width="1.78" height="1.77" style="fill:#fff"/><rect x="123.1" y="37.78" width="1.78" height="1.77" style="fill:#fff"/><rect x="123.1" y="36.01" width="1.78" height="1.77" style="fill:#fff"/><rect x="123.1" y="34.24" width="1.78" height="1.77"/><rect x="123.1" y="32.48" width="1.78" height="1.77" style="fill:#fff"/><rect x="121.34" y="69.59" width="1.77" height="1.77" style="fill:#fff"/><rect x="121.34" y="67.82" width="1.77" height="1.77"/><rect x="121.34" y="66.05" width="1.77" height="1.77" style="fill:#fff"/><rect x="121.34" y="64.29" width="1.77" height="1.77"/><rect x="121.34" y="62.52" width="1.77" height="1.77" style="fill:#fff"/><rect x="121.34" y="60.75" width="1.77" height="1.77"/><rect x="121.34" y="58.99" width="1.77" height="1.77" style="fill:#fff"/><rect x="121.34" y="57.22" width="1.77" height="1.77" style="fill:#fff"/><rect x="121.34" y="55.45" width="1.77" height="1.77"/><rect x="121.34" y="53.68" width="1.77" height="1.77"/><rect x="121.34" y="51.92" width="1.77" height="1.77"/><rect x="121.34" y="50.15" width="1.77" height="1.77"/><rect x="121.34" y="48.38" width="1.77" height="1.77"/><rect x="121.34" y="46.61" width="1.77" height="1.77"/><rect x="121.34" y="44.85" width="1.77" height="1.77" style="fill:#fff"/><rect x="121.34" y="43.08" width="1.77" height="1.77" style="fill:#fff"/><rect x="121.34" y="41.31" width="1.77" height="1.77"/><rect x="121.34" y="39.55" width="1.77" height="1.77" style="fill:#fff"/><rect x="121.34" y="37.78" width="1.77" height="1.77"/><rect x="121.34" y="36.01" width="1.77" height="1.77" style="fill:#fff"/><rect x="121.34" y="34.24" width="1.77" height="1.77"/><rect x="121.34" y="32.48" width="1.77" height="1.77" style="fill:#fff"/><rect x="119.57" y="69.59" width="1.77" height="1.77" style="fill:#fff"/><rect x="119.57" y="67.82" width="1.77" height="1.77"/><rect x="119.57" y="66.05" width="1.77" height="1.77" style="fill:#fff"/><rect x="119.57" y="64.29" width="1.77" height="1.77" style="fill:#fff"/><rect x="119.57" y="62.52" width="1.77" height="1.77" style="fill:#fff"/><rect x="119.57" y="60.75" width="1.77" height="1.77" style="fill:#fff"/><rect x="119.57" y="58.99" width="1.77" height="1.77" style="fill:#fff"/><rect x="119.57" y="57.22" width="1.77" height="1.77" style="fill:#fff"/><rect x="119.57" y="55.45" width="1.77" height="1.77" style="fill:#fff"/><rect x="119.57" y="53.68" width="1.77" height="1.77" style="fill:#fff"/><rect x="119.57" y="51.92" width="1.77" height="1.77" style="fill:#fff"/><rect x="119.57" y="50.15" width="1.77" height="1.77" style="fill:#fff"/><rect x="119.57" y="48.38" width="1.77" height="1.77" style="fill:#fff"/><rect x="119.57" y="46.61" width="1.77" height="1.77"/><rect x="119.57" y="44.85" width="1.77" height="1.77" style="fill:#fff"/><rect x="119.57" y="43.08" width="1.77" height="1.77" style="fill:#fff"/><rect x="119.57" y="41.31" width="1.77" height="1.77"/><rect x="119.57" y="39.55" width="1.77" height="1.77" style="fill:#fff"/><rect x="119.57" y="37.78" width="1.77" height="1.77" style="fill:#fff"/><rect x="119.57" y="36.01" width="1.77" height="1.77" style="fill:#fff"/><rect x="119.57" y="34.24" width="1.77" height="1.77"/><rect x="119.57" y="32.48" width="1.77" height="1.77" style="fill:#fff"/><rect x="117.81" y="69.59" width="1.77" height="1.77" style="fill:#fff"/><rect x="117.81" y="67.82" width="1.77" height="1.77"/><rect x="117.81" y="66.05" width="1.77" height="1.77" style="fill:#fff"/><rect x="117.81" y="64.29" width="1.77" height="1.77"/><rect x="117.81" y="62.52" width="1.77" height="1.77" style="fill:#fff"/><rect x="117.81" y="60.75" width="1.77" height="1.77" style="fill:#fff"/><rect x="117.81" y="58.99" width="1.77" height="1.77" style="fill:#fff"/><rect x="117.81" y="57.22" width="1.77" height="1.77" style="fill:#fff"/><rect x="117.81" y="55.45" width="1.77" height="1.77" style="fill:#fff"/><rect x="117.81" y="53.68" width="1.77" height="1.77" style="fill:#fff"/><rect x="117.81" y="51.92" width="1.77" height="1.77"/><rect x="117.81" y="50.15" width="1.77" height="1.77"/><rect x="117.81" y="48.38" width="1.77" height="1.77" style="fill:#fff"/><rect x="117.81" y="46.61" width="1.77" height="1.77"/><rect x="117.81" y="44.85" width="1.77" height="1.77"/><rect x="117.81" y="43.08" width="1.77" height="1.77" style="fill:#fff"/><rect x="117.81" y="41.31" width="1.77" height="1.77"/><rect x="117.81" y="39.55" width="1.77" height="1.77"/><rect x="117.81" y="37.78" width="1.77" height="1.77"/><rect x="117.81" y="36.01" width="1.77" height="1.77"/><rect x="117.81" y="34.24" width="1.77" height="1.77"/><rect x="117.81" y="32.48" width="1.77" height="1.77" style="fill:#fff"/><rect x="116.04" y="69.59" width="1.77" height="1.77" style="fill:#fff"/><rect x="116.04" y="67.82" width="1.77" height="1.77"/><rect x="116.04" y="66.05" width="1.77" height="1.77" style="fill:#fff"/><rect x="116.04" y="64.29" width="1.77" height="1.77"/><rect x="116.04" y="62.52" width="1.77" height="1.77" style="fill:#fff"/><rect x="116.04" y="60.75" width="1.77" height="1.77" style="fill:#fff"/><rect x="116.04" y="58.99" width="1.77" height="1.77"/><rect x="116.04" y="57.22" width="1.77" height="1.77"/><rect x="116.04" y="55.45" width="1.77" height="1.77" style="fill:#fff"/><rect x="116.04" y="53.68" width="1.77" height="1.77" style="fill:#fff"/><rect x="116.04" y="51.92" width="1.77" height="1.77"/><rect x="116.04" y="50.15" width="1.77" height="1.77" style="fill:#fff"/><rect x="116.04" y="48.38" width="1.77" height="1.77" style="fill:#fff"/><rect x="116.04" y="46.61" width="1.77" height="1.77" style="fill:#fff"/><rect x="116.04" y="44.85" width="1.77" height="1.77" style="fill:#fff"/><rect x="116.04" y="43.08" width="1.77" height="1.77" style="fill:#fff"/><rect x="116.04" y="41.31" width="1.77" height="1.77" style="fill:#fff"/><rect x="116.04" y="39.55" width="1.77" height="1.77" style="fill:#fff"/><rect x="116.04" y="37.78" width="1.77" height="1.77" style="fill:#fff"/><rect x="116.04" y="36.01" width="1.77" height="1.77" style="fill:#fff"/><rect x="116.04" y="34.24" width="1.77" height="1.77" style="fill:#fff"/><rect x="116.04" y="32.48" width="1.77" height="1.77" style="fill:#fff"/><rect x="114.28" y="69.59" width="1.77" height="1.77" style="fill:#fff"/><rect x="114.28" y="67.82" width="1.77" height="1.77"/><rect x="114.28" y="66.05" width="1.77" height="1.77" style="fill:#fff"/><rect x="114.28" y="64.29" width="1.77" height="1.77"/><rect x="114.28" y="62.52" width="1.77" height="1.77" style="fill:#fff"/><rect x="114.28" y="60.75" width="1.77" height="1.77"/><rect x="114.28" y="58.99" width="1.77" height="1.77"/><rect x="114.28" y="57.22" width="1.77" height="1.77"/><rect x="114.28" y="55.45" width="1.77" height="1.77"/><rect x="114.28" y="53.68" width="1.77" height="1.77" style="fill:#fff"/><rect x="114.28" y="51.92" width="1.77" height="1.77"/><rect x="114.28" y="50.15" width="1.77" height="1.77"/><rect x="114.28" y="48.38" width="1.77" height="1.77" style="fill:#fff"/><rect x="114.28" y="46.61" width="1.77" height="1.77" style="fill:#fff"/><rect x="114.28" y="44.85" width="1.77" height="1.77"/><rect x="114.28" y="43.08" width="1.77" height="1.77" style="fill:#fff"/><rect x="114.28" y="41.31" width="1.77" height="1.77" style="fill:#fff"/><rect x="114.28" y="39.55" width="1.77" height="1.77"/><rect x="114.28" y="37.78" width="1.77" height="1.77" style="fill:#fff"/><rect x="114.28" y="36.01" width="1.77" height="1.77" style="fill:#fff"/><rect x="114.28" y="34.24" width="1.77" height="1.77"/><rect x="114.28" y="32.48" width="1.77" height="1.77" style="fill:#fff"/><rect x="112.5" y="69.59" width="1.78" height="1.77" style="fill:#fff"/><rect x="112.5" y="67.82" width="1.78" height="1.77" style="fill:#fff"/><rect x="112.5" y="66.05" width="1.78" height="1.77" style="fill:#fff"/><rect x="112.5" y="64.29" width="1.78" height="1.77"/><rect x="112.5" y="62.52" width="1.78" height="1.77" style="fill:#fff"/><rect x="112.5" y="60.75" width="1.78" height="1.77"/><rect x="112.5" y="58.99" width="1.78" height="1.77" style="fill:#fff"/><rect x="112.5" y="57.22" width="1.78" height="1.77" style="fill:#fff"/><rect x="112.5" y="55.45" width="1.78" height="1.77"/><rect x="112.5" y="53.68" width="1.78" height="1.77" style="fill:#fff"/><rect x="112.5" y="51.92" width="1.78" height="1.77" style="fill:#fff"/><rect x="112.5" y="50.15" width="1.78" height="1.77" style="fill:#fff"/><rect x="112.5" y="48.38" width="1.78" height="1.77" style="fill:#fff"/><rect x="112.5" y="46.61" width="1.78" height="1.77" style="fill:#fff"/><rect x="112.5" y="44.85" width="1.78" height="1.77"/><rect x="112.5" y="43.08" width="1.78" height="1.77"/><rect x="112.5" y="41.31" width="1.78" height="1.77" style="fill:#fff"/><rect x="112.5" y="39.55" width="1.78" height="1.77" style="fill:#fff"/><rect x="112.5" y="37.78" width="1.78" height="1.77"/><rect x="112.5" y="36.01" width="1.78" height="1.77"/><rect x="112.5" y="34.24" width="1.78" height="1.77"/><rect x="112.5" y="32.48" width="1.78" height="1.77" style="fill:#fff"/><rect x="110.73" y="69.59" width="1.77" height="1.77" style="fill:#fff"/><rect x="110.73" y="67.82" width="1.77" height="1.77"/><rect x="110.73" y="66.05" width="1.77" height="1.77" style="fill:#fff"/><rect x="110.73" y="64.29" width="1.77" height="1.77" style="fill:#fff"/><rect x="110.73" y="62.52" width="1.77" height="1.77" style="fill:#fff"/><rect x="110.73" y="60.75" width="1.77" height="1.77" style="fill:#fff"/><rect x="110.73" y="58.99" width="1.77" height="1.77"/><rect x="110.73" y="57.22" width="1.77" height="1.77" style="fill:#fff"/><rect x="110.73" y="55.45" width="1.77" height="1.77" style="fill:#fff"/><rect x="110.73" y="53.68" width="1.77" height="1.77"/><rect x="110.73" y="51.92" width="1.77" height="1.77"/><rect x="110.73" y="50.15" width="1.77" height="1.77"/><rect x="110.73" y="48.38" width="1.77" height="1.77"/><rect x="110.73" y="46.61" width="1.77" height="1.77" style="fill:#fff"/><rect x="110.73" y="44.85" width="1.77" height="1.77"/><rect x="110.73" y="43.08" width="1.77" height="1.77" style="fill:#fff"/><rect x="110.73" y="41.31" width="1.77" height="1.77"/><rect x="110.73" y="39.55" width="1.77" height="1.77" style="fill:#fff"/><rect x="110.73" y="37.78" width="1.77" height="1.77"/><rect x="110.73" y="36.01" width="1.77" height="1.77" style="fill:#fff"/><rect x="110.73" y="34.24" width="1.77" height="1.77"/><rect x="110.73" y="32.48" width="1.77" height="1.77" style="fill:#fff"/><rect x="108.97" y="69.59" width="1.77" height="1.77" style="fill:#fff"/><rect x="108.97" y="67.82" width="1.77" height="1.77" style="fill:#fff"/><rect x="108.97" y="66.05" width="1.77" height="1.77"/><rect x="108.97" y="64.29" width="1.77" height="1.77"/><rect x="108.97" y="62.52" width="1.77" height="1.77"/><rect x="108.97" y="60.75" width="1.77" height="1.77"/><rect x="108.97" y="58.99" width="1.77" height="1.77"/><rect x="108.97" y="57.22" width="1.77" height="1.77" style="fill:#fff"/><rect x="108.97" y="55.45" width="1.77" height="1.77" style="fill:#fff"/><rect x="108.97" y="53.68" width="1.77" height="1.77" style="fill:#fff"/><rect x="108.97" y="51.92" width="1.77" height="1.77" style="fill:#fff"/><rect x="108.97" y="50.15" width="1.77" height="1.77" style="fill:#fff"/><rect x="108.97" y="48.38" width="1.77" height="1.77" style="fill:#fff"/><rect x="108.97" y="46.61" width="1.77" height="1.77" style="fill:#fff"/><rect x="108.97" y="44.85" width="1.77" height="1.77" style="fill:#fff"/><rect x="108.97" y="43.08" width="1.77" height="1.77" style="fill:#fff"/><rect x="108.97" y="41.31" width="1.77" height="1.77" style="fill:#fff"/><rect x="108.97" y="39.55" width="1.77" height="1.77" style="fill:#fff"/><rect x="108.97" y="37.78" width="1.77" height="1.77" style="fill:#fff"/><rect x="108.97" y="36.01" width="1.77" height="1.77" style="fill:#fff"/><rect x="108.97" y="34.24" width="1.77" height="1.77"/><rect x="108.97" y="32.48" width="1.77" height="1.77" style="fill:#fff"/><rect x="107.2" y="69.59" width="1.77" height="1.77" style="fill:#fff"/><rect x="107.2" y="67.82" width="1.77" height="1.77"/><rect x="107.2" y="66.05" width="1.77" height="1.77" style="fill:#fff"/><rect x="107.2" y="64.29" width="1.77" height="1.77" style="fill:#fff"/><rect x="107.2" y="62.52" width="1.77" height="1.77" style="fill:#fff"/><rect x="107.2" y="60.75" width="1.77" height="1.77" style="fill:#fff"/><rect x="107.2" y="58.99" width="1.77" height="1.77" style="fill:#fff"/><rect x="107.2" y="57.22" width="1.77" height="1.77" style="fill:#fff"/><rect x="107.2" y="55.45" width="1.77" height="1.77" style="fill:#fff"/><rect x="107.2" y="53.68" width="1.77" height="1.77" style="fill:#fff"/><rect x="107.2" y="51.92" width="1.77" height="1.77" style="fill:#fff"/><rect x="107.2" y="50.15" width="1.77" height="1.77" style="fill:#fff"/><rect x="107.2" y="48.38" width="1.77" height="1.77"/><rect x="107.2" y="46.61" width="1.77" height="1.77" style="fill:#fff"/><rect x="107.2" y="44.85" width="1.77" height="1.77" style="fill:#fff"/><rect x="107.2" y="43.08" width="1.77" height="1.77"/><rect x="107.2" y="41.31" width="1.77" height="1.77"/><rect x="107.2" y="39.55" width="1.77" height="1.77" style="fill:#fff"/><rect x="107.2" y="37.78" width="1.77" height="1.77" style="fill:#fff"/><rect x="107.2" y="36.01" width="1.77" height="1.77"/><rect x="107.2" y="34.24" width="1.77" height="1.77" style="fill:#fff"/><rect x="107.2" y="32.48" width="1.77" height="1.77" style="fill:#fff"/><rect x="105.44" y="69.59" width="1.77" height="1.77" style="fill:#fff"/><rect x="105.44" y="67.82" width="1.77" height="1.77"/><rect x="105.44" y="66.05" width="1.77" height="1.77" style="fill:#fff"/><rect x="105.44" y="64.29" width="1.77" height="1.77" style="fill:#fff"/><rect x="105.44" y="62.52" width="1.77" height="1.77" style="fill:#fff"/><rect x="105.44" y="60.75" width="1.77" height="1.77"/><rect x="105.44" y="58.99" width="1.77" height="1.77" style="fill:#fff"/><rect x="105.44" y="57.22" width="1.77" height="1.77" style="fill:#fff"/><rect x="105.44" y="55.45" width="1.77" height="1.77" style="fill:#fff"/><rect x="105.44" y="53.68" width="1.77" height="1.77"/><rect x="105.44" y="51.92" width="1.77" height="1.77" style="fill:#fff"/><rect x="105.44" y="50.15" width="1.77" height="1.77"/><rect x="105.44" y="48.38" width="1.77" height="1.77" style="fill:#fff"/><rect x="105.44" y="46.61" width="1.77" height="1.77" style="fill:#fff"/><rect x="105.44" y="44.85" width="1.77" height="1.77"/><rect x="105.44" y="43.08" width="1.77" height="1.77"/><rect x="105.44" y="41.31" width="1.77" height="1.77"/><rect x="105.44" y="39.55" width="1.77" height="1.77"/><rect x="105.44" y="37.78" width="1.77" height="1.77"/><rect x="105.44" y="36.01" width="1.77" height="1.77"/><rect x="105.44" y="34.24" width="1.77" height="1.77"/><rect x="105.44" y="32.48" width="1.77" height="1.77" style="fill:#fff"/><rect x="103.66" y="69.59" width="1.78" height="1.77" style="fill:#fff"/><rect x="103.66" y="67.82" width="1.78" height="1.77" style="fill:#fff"/><rect x="103.66" y="66.05" width="1.78" height="1.77" style="fill:#fff"/><rect x="103.66" y="64.29" width="1.78" height="1.77" style="fill:#fff"/><rect x="103.66" y="62.52" width="1.78" height="1.77" style="fill:#fff"/><rect x="103.66" y="60.75" width="1.78" height="1.77"/><rect x="103.66" y="58.99" width="1.78" height="1.77"/><rect x="103.66" y="57.22" width="1.78" height="1.77"/><rect x="103.66" y="55.45" width="1.78" height="1.77"/><rect x="103.66" y="53.68" width="1.78" height="1.77" style="fill:#fff"/><rect x="103.66" y="51.92" width="1.78" height="1.77"/><rect x="103.66" y="50.15" width="1.78" height="1.77"/><rect x="103.66" y="48.38" width="1.78" height="1.77"/><rect x="103.66" y="46.61" width="1.78" height="1.77" style="fill:#fff"/><rect x="103.66" y="44.85" width="1.78" height="1.77"/><rect x="103.66" y="43.08" width="1.78" height="1.77" style="fill:#fff"/><rect x="103.66" y="41.31" width="1.78" height="1.77"/><rect x="103.66" y="39.55" width="1.78" height="1.77" style="fill:#fff"/><rect x="103.66" y="37.78" width="1.78" height="1.77" style="fill:#fff"/><rect x="103.66" y="36.01" width="1.78" height="1.77"/><rect x="103.66" y="34.24" width="1.78" height="1.77" style="fill:#fff"/><rect x="103.66" y="32.48" width="1.78" height="1.77" style="fill:#fff"/><rect x="101.9" y="69.59" width="1.77" height="1.77" style="fill:#fff"/><rect x="101.9" y="67.82" width="1.77" height="1.77"/><rect x="101.9" y="66.05" width="1.77" height="1.77"/><rect x="101.9" y="64.29" width="1.77" height="1.77"/><rect x="101.9" y="62.52" width="1.77" height="1.77"/><rect x="101.9" y="60.75" width="1.77" height="1.77"/><rect x="101.9" y="58.99" width="1.77" height="1.77" style="fill:#fff"/><rect x="101.9" y="57.22" width="1.77" height="1.77" style="fill:#fff"/><rect x="101.9" y="55.45" width="1.77" height="1.77" style="fill:#fff"/><rect x="101.9" y="53.68" width="1.77" height="1.77" style="fill:#fff"/><rect x="101.9" y="51.92" width="1.77" height="1.77" style="fill:#fff"/><rect x="101.9" y="50.15" width="1.77" height="1.77" style="fill:#fff"/><rect x="101.9" y="48.38" width="1.77" height="1.77" style="fill:#fff"/><rect x="101.9" y="46.61" width="1.77" height="1.77" style="fill:#fff"/><rect x="101.9" y="44.85" width="1.77" height="1.77"/><rect x="101.9" y="43.08" width="1.77" height="1.77" style="fill:#fff"/><rect x="101.9" y="41.31" width="1.77" height="1.77" style="fill:#fff"/><rect x="101.9" y="39.55" width="1.77" height="1.77"/><rect x="101.9" y="37.78" width="1.77" height="1.77" style="fill:#fff"/><rect x="101.9" y="36.01" width="1.77" height="1.77"/><rect x="101.9" y="34.24" width="1.77" height="1.77" style="fill:#fff"/><rect x="101.9" y="32.48" width="1.77" height="1.77" style="fill:#fff"/><rect x="100.13" y="69.59" width="1.77" height="1.77" style="fill:#fff"/><rect x="100.13" y="67.82" width="1.77" height="1.77" style="fill:#fff"/><rect x="100.13" y="66.05" width="1.77" height="1.77" style="fill:#fff"/><rect x="100.13" y="64.29" width="1.77" height="1.77" style="fill:#fff"/><rect x="100.13" y="62.52" width="1.77" height="1.77" style="fill:#fff"/><rect x="100.13" y="60.75" width="1.77" height="1.77" style="fill:#fff"/><rect x="100.13" y="58.99" width="1.77" height="1.77" style="fill:#fff"/><rect x="100.13" y="57.22" width="1.77" height="1.77"/><rect x="100.13" y="55.45" width="1.77" height="1.77"/><rect x="100.13" y="53.68" width="1.77" height="1.77"/><rect x="100.13" y="51.92" width="1.77" height="1.77" style="fill:#fff"/><rect x="100.13" y="50.15" width="1.77" height="1.77" style="fill:#fff"/><rect x="100.13" y="48.38" width="1.77" height="1.77"/><rect x="100.13" y="46.61" width="1.77" height="1.77"/><rect x="100.13" y="44.85" width="1.77" height="1.77"/><rect x="100.13" y="43.08" width="1.77" height="1.77" style="fill:#fff"/><rect x="100.13" y="41.31" width="1.77" height="1.77" style="fill:#fff"/><rect x="100.13" y="39.55" width="1.77" height="1.77" style="fill:#fff"/><rect x="100.13" y="37.78" width="1.77" height="1.77" style="fill:#fff"/><rect x="100.13" y="36.01" width="1.77" height="1.77" style="fill:#fff"/><rect x="100.13" y="34.24" width="1.77" height="1.77" style="fill:#fff"/><rect x="100.13" y="32.48" width="1.77" height="1.77" style="fill:#fff"/><rect x="98.37" y="69.59" width="1.77" height="1.77" style="fill:#fff"/><rect x="98.37" y="67.82" width="1.77" height="1.77"/><rect x="98.37" y="66.05" width="1.77" height="1.77"/><rect x="98.37" y="64.29" width="1.77" height="1.77"/><rect x="98.37" y="62.52" width="1.77" height="1.77"/><rect x="98.37" y="60.75" width="1.77" height="1.77"/><rect x="98.37" y="58.99" width="1.77" height="1.77" style="fill:#fff"/><rect x="98.37" y="57.22" width="1.77" height="1.77" style="fill:#fff"/><rect x="98.37" y="55.45" width="1.77" height="1.77" style="fill:#fff"/><rect x="98.37" y="53.68" width="1.77" height="1.77"/><rect x="98.37" y="51.92" width="1.77" height="1.77" style="fill:#fff"/><rect x="98.37" y="50.15" width="1.77" height="1.77" style="fill:#fff"/><rect x="98.37" y="48.38" width="1.77" height="1.77" style="fill:#fff"/><rect x="98.37" y="46.61" width="1.77" height="1.77" style="fill:#fff"/><rect x="98.37" y="44.85" width="1.77" height="1.77"/><rect x="98.37" y="43.08" width="1.77" height="1.77" style="fill:#fff"/><rect x="98.37" y="41.31" width="1.77" height="1.77"/><rect x="98.37" y="39.55" width="1.77" height="1.77"/><rect x="98.37" y="37.78" width="1.77" height="1.77"/><rect x="98.37" y="36.01" width="1.77" height="1.77"/><rect x="98.37" y="34.24" width="1.77" height="1.77"/><rect x="98.37" y="32.48" width="1.77" height="1.77" style="fill:#fff"/><rect x="96.6" y="69.59" width="1.77" height="1.77" style="fill:#fff"/><rect x="96.6" y="67.82" width="1.77" height="1.77"/><rect x="96.6" y="66.05" width="1.77" height="1.77" style="fill:#fff"/><rect x="96.6" y="64.29" width="1.77" height="1.77" style="fill:#fff"/><rect x="96.6" y="62.52" width="1.77" height="1.77" style="fill:#fff"/><rect x="96.6" y="60.75" width="1.77" height="1.77"/><rect x="96.6" y="58.99" width="1.77" height="1.77" style="fill:#fff"/><rect x="96.6" y="57.22" width="1.77" height="1.77" style="fill:#fff"/><rect x="96.6" y="55.45" width="1.77" height="1.77" style="fill:#fff"/><rect x="96.6" y="53.68" width="1.77" height="1.77"/><rect x="96.6" y="51.92" width="1.77" height="1.77" style="fill:#fff"/><rect x="96.6" y="50.15" width="1.77" height="1.77"/><rect x="96.6" y="48.38" width="1.77" height="1.77" style="fill:#fff"/><rect x="96.6" y="46.61" width="1.77" height="1.77" style="fill:#fff"/><rect x="96.6" y="44.85" width="1.77" height="1.77"/><rect x="96.6" y="43.08" width="1.77" height="1.77" style="fill:#fff"/><rect x="96.6" y="41.31" width="1.77" height="1.77"/><rect x="96.6" y="39.55" width="1.77" height="1.77" style="fill:#fff"/><rect x="96.6" y="37.78" width="1.77" height="1.77" style="fill:#fff"/><rect x="96.6" y="36.01" width="1.77" height="1.77" style="fill:#fff"/><rect x="96.6" y="34.24" width="1.77" height="1.77"/><rect x="96.6" y="32.48" width="1.77" height="1.77" style="fill:#fff"/><rect x="94.84" y="69.59" width="1.77" height="1.77" style="fill:#fff"/><rect x="94.84" y="67.82" width="1.77" height="1.77"/><rect x="94.84" y="66.05" width="1.77" height="1.77" style="fill:#fff"/><rect x="94.84" y="64.29" width="1.77" height="1.77"/><rect x="94.84" y="62.52" width="1.77" height="1.77" style="fill:#fff"/><rect x="94.84" y="60.75" width="1.77" height="1.77"/><rect x="94.84" y="58.99" width="1.77" height="1.77" style="fill:#fff"/><rect x="94.84" y="57.22" width="1.77" height="1.77"/><rect x="94.84" y="55.45" width="1.77" height="1.77" style="fill:#fff"/><rect x="94.84" y="53.68" width="1.77" height="1.77"/><rect x="94.84" y="51.92" width="1.77" height="1.77" style="fill:#fff"/><rect x="94.84" y="50.15" width="1.77" height="1.77"/><rect x="94.84" y="48.38" width="1.77" height="1.77" style="fill:#fff"/><rect x="94.84" y="46.61" width="1.77" height="1.77" style="fill:#fff"/><rect x="94.84" y="44.85" width="1.77" height="1.77" style="fill:#fff"/><rect x="94.84" y="43.08" width="1.77" height="1.77" style="fill:#fff"/><rect x="94.84" y="41.31" width="1.77" height="1.77"/><rect x="94.84" y="39.55" width="1.77" height="1.77" style="fill:#fff"/><rect x="94.84" y="37.78" width="1.77" height="1.77"/><rect x="94.84" y="36.01" width="1.77" height="1.77" style="fill:#fff"/><rect x="94.84" y="34.24" width="1.77" height="1.77"/><rect x="94.84" y="32.48" width="1.77" height="1.77" style="fill:#fff"/><rect x="93.06" y="69.59" width="1.78" height="1.77" style="fill:#fff"/><rect x="93.06" y="67.82" width="1.78" height="1.77"/><rect x="93.06" y="66.05" width="1.78" height="1.77" style="fill:#fff"/><rect x="93.06" y="64.29" width="1.78" height="1.77" style="fill:#fff"/><rect x="93.06" y="62.52" width="1.78" height="1.77" style="fill:#fff"/><rect x="93.06" y="60.75" width="1.78" height="1.77"/><rect x="93.06" y="58.99" width="1.78" height="1.77" style="fill:#fff"/><rect x="93.06" y="57.22" width="1.78" height="1.77" style="fill:#fff"/><rect x="93.06" y="55.45" width="1.78" height="1.77"/><rect x="93.06" y="53.68" width="1.78" height="1.77"/><rect x="93.06" y="51.92" width="1.78" height="1.77" style="fill:#fff"/><rect x="93.06" y="50.15" width="1.78" height="1.77"/><rect x="93.06" y="48.38" width="1.78" height="1.77" style="fill:#fff"/><rect x="93.06" y="46.61" width="1.78" height="1.77"/><rect x="93.06" y="44.85" width="1.78" height="1.77"/><rect x="93.06" y="43.08" width="1.78" height="1.77" style="fill:#fff"/><rect x="93.06" y="41.31" width="1.78" height="1.77"/><rect x="93.06" y="39.55" width="1.78" height="1.77" style="fill:#fff"/><rect x="93.06" y="37.78" width="1.78" height="1.77" style="fill:#fff"/><rect x="93.06" y="36.01" width="1.78" height="1.77" style="fill:#fff"/><rect x="93.06" y="34.24" width="1.78" height="1.77"/><rect x="93.06" y="32.48" width="1.78" height="1.77" style="fill:#fff"/><rect x="91.29" y="69.59" width="1.77" height="1.77" style="fill:#fff"/><rect x="91.29" y="67.82" width="1.77" height="1.77"/><rect x="91.29" y="66.05" width="1.77" height="1.77"/><rect x="91.29" y="64.29" width="1.77" height="1.77"/><rect x="91.29" y="62.52" width="1.77" height="1.77"/><rect x="91.29" y="60.75" width="1.77" height="1.77"/><rect x="91.29" y="58.99" width="1.77" height="1.77" style="fill:#fff"/><rect x="91.29" y="57.22" width="1.77" height="1.77"/><rect x="91.29" y="55.45" width="1.77" height="1.77" style="fill:#fff"/><rect x="91.29" y="53.68" width="1.77" height="1.77" style="fill:#fff"/><rect x="91.29" y="51.92" width="1.77" height="1.77"/><rect x="91.29" y="50.15" width="1.77" height="1.77"/><rect x="91.29" y="48.38" width="1.77" height="1.77" style="fill:#fff"/><rect x="91.29" y="46.61" width="1.77" height="1.77"/><rect x="91.29" y="44.85" width="1.77" height="1.77"/><rect x="91.29" y="43.08" width="1.77" height="1.77" style="fill:#fff"/><rect x="91.29" y="41.31" width="1.77" height="1.77"/><rect x="91.29" y="39.55" width="1.77" height="1.77"/><rect x="91.29" y="37.78" width="1.77" height="1.77"/><rect x="91.29" y="36.01" width="1.77" height="1.77"/><rect x="91.29" y="34.24" width="1.77" height="1.77"/><rect x="91.29" y="32.48" width="1.77" height="1.77" style="fill:#fff"/><rect x="89.53" y="69.59" width="1.77" height="1.77" style="fill:#fff"/><rect x="89.53" y="67.82" width="1.77" height="1.77" style="fill:#fff"/><rect x="89.53" y="66.05" width="1.77" height="1.77" style="fill:#fff"/><rect x="89.53" y="64.29" width="1.77" height="1.77" style="fill:#fff"/><rect x="89.53" y="62.52" width="1.77" height="1.77" style="fill:#fff"/><rect x="89.53" y="60.75" width="1.77" height="1.77" style="fill:#fff"/><rect x="89.53" y="58.99" width="1.77" height="1.77" style="fill:#fff"/><rect x="89.53" y="57.22" width="1.77" height="1.77" style="fill:#fff"/><rect x="89.53" y="55.45" width="1.77" height="1.77" style="fill:#fff"/><rect x="89.53" y="53.68" width="1.77" height="1.77" style="fill:#fff"/><rect x="89.53" y="51.92" width="1.77" height="1.77" style="fill:#fff"/><rect x="89.53" y="50.15" width="1.77" height="1.77" style="fill:#fff"/><rect x="89.53" y="48.38" width="1.77" height="1.77" style="fill:#fff"/><rect x="89.53" y="46.61" width="1.77" height="1.77" style="fill:#fff"/><rect x="89.53" y="44.85" width="1.77" height="1.77" style="fill:#fff"/><rect x="89.53" y="43.08" width="1.77" height="1.77" style="fill:#fff"/><rect x="89.53" y="41.31" width="1.77" height="1.77" style="fill:#fff"/><rect x="89.53" y="39.55" width="1.77" height="1.77" style="fill:#fff"/><rect x="89.53" y="37.78" width="1.77" height="1.77" style="fill:#fff"/><rect x="89.53" y="36.01" width="1.77" height="1.77" style="fill:#fff"/><rect x="89.53" y="34.24" width="1.77" height="1.77" style="fill:#fff"/><rect x="89.53" y="32.48" width="1.77" height="1.77" style="fill:#fff"/><polyline points="85.64 36.68 85.64 28.59 93.65 28.59" style="fill:none;stroke:#00b1f7;stroke-miterlimit:10;stroke-width:1.5552000000000001px"/><polyline points="132.3 36.52 132.3 28.43 124.29 28.43" style="fill:none;stroke:#00b1f7;stroke-miterlimit:10;stroke-width:1.5552000000000001px"/><polyline points="85.64 67.23 85.64 75.33 93.65 75.33" style="fill:none;stroke:#00b1f7;stroke-miterlimit:10;stroke-width:1.5552000000000001px"/><polyline points="132.3 67.39 132.3 75.48 124.29 75.48" style="fill:none;stroke:#00b1f7;stroke-miterlimit:10;stroke-width:1.5552000000000001px"/><path d="M153,68.39c2.6,2.75,2.79,6.77.45,9l-21.92,20.7c-2.35,2.21-6.36,1.79-9-1h0c-2.59-2.75-2.79-6.77-.45-9L144,67.43c2.34-2.21,6.35-1.78,8.94,1Z" style="fill:#f4be92"/><path d="M152.8,86.75c2.6,2.75,2.79,6.77.45,9l-21.92,20.7c-2.35,2.22-6.36,1.78-9-1h0c-2.59-2.75-2.79-6.77-.45-9l21.93-20.7c2.34-2.21,6.35-1.78,8.94,1Z" style="fill:#f4be92"/><path d="M149.75,107.16c2.59,2.74,3.38,6.21,1.76,7.74l-15.15,14.3c-1.62,1.53-5,.55-7.63-2.2h0c-2.59-2.75-3.38-6.22-1.76-7.75L142.12,105c1.62-1.53,5-.54,7.63,2.21Z" style="fill:#f4be92"/><path d="M151.66,70.57a7.51,7.51,0,0,1-.26,1.23,9.93,9.93,0,0,1-.5,1.38l-.34.84c-.13.29-.31.57-.48.88-.34.6-.69,1.28-1.13,1.94s-.95,1.33-1.48,2c-.27.34-.54.7-.81,1l-.92,1-1.9,2a23.65,23.65,0,0,1-2,1.85c-.68.59-1.39,1.14-2.05,1.7a19.77,19.77,0,0,1-2,1.5q-1,.67-1.86,1.23c-2.32,1.5-3.92,2.39-3.92,2.39s1.33-1.29,3.42-3c.52-.44,1.08-.92,1.69-1.41s1.19-1.07,1.82-1.64,1.27-1.17,1.94-1.76a22.71,22.71,0,0,0,2-1.84L144.72,80l.94-.93.83-1c.54-.64,1.08-1.25,1.6-1.84s.88-1.21,1.29-1.74l.58-.79.45-.74c.27-.48.57-.87.72-1.23s.33-.63.41-.83Z" style="fill:#d39871"/><path d="M152.35,89.17l0,.36c-.06.23-.13.57-.25,1s-.35.93-.58,1.51a12.5,12.5,0,0,1-1,1.86A14,14,0,0,1,149.18,96c-.52.71-1.07,1.46-1.66,2.21a12.63,12.63,0,0,1-1,1.11l-1,1.09-2.1,2.21c-.74.7-1.52,1.35-2.27,2s-1.51,1.29-2.23,1.91c-.37.31-.72.62-1.08.9l-1.09.79c-.7.51-1.38,1-2,1.41-2.5,1.75-4.23,2.8-4.23,2.8S132,111,134.26,109c.57-.51,1.18-1.05,1.84-1.6l1-.87,1-1c.69-.64,1.39-1.32,2.13-2s1.48-1.33,2.2-2l2.09-2.13c.67-.72,1.43-1.35,2-2.07s1.2-1.39,1.77-2a19.79,19.79,0,0,0,1.49-1.89A16.94,16.94,0,0,0,151,91.79c.3-.52.61-1,.81-1.35s.33-.71.43-.93Z" style="fill:#d39871"/><path d="M149.38,111.73a22.1,22.1,0,0,1-1.66,2.86,33.18,33.18,0,0,1-2,2.73c-.78,1-1.69,1.93-2.61,2.88a34.52,34.52,0,0,1-3,2.57,24.46,24.46,0,0,1-2.84,1.89c-.44.24-.85.44-1.21.62s-.71.3-1,.41c-.55.21-.86.31-.86.31l.72-.56c.47-.33,1.09-.86,1.85-1.46l1.2-1c.42-.35.84-.78,1.3-1.17s.88-.85,1.36-1.27l1.39-1.34c1.84-1.82,3.63-3.7,5-5.1S149.38,111.73,149.38,111.73Z" style="fill:#d39871"/><path d="M95.93,133.68s-12.7,27.11-11.78,38l13.91,6.9S102.91,136.93,95.93,133.68Z" style="fill:#dda783"/><path d="M97.86,160.77s.09,2.27,0,5.64c0,1.68-.1,3.64-.2,5.73-.06,1.05-.07,2.13-.16,3.23l-.18,3.32c-.13,2.23-.26,4.45-.39,6.53,0,1-.13,2.05-.15,3s-.11,1.86-.1,2.68-.07,1.61,0,2.28,0,1.27,0,1.75c.09,1,.13,1.55.13,1.55s-.22-.52-.57-1.46a17.66,17.66,0,0,1-.46-1.74,20.85,20.85,0,0,1-.41-2.3c-.15-.85-.21-1.77-.29-2.74s-.12-2-.14-3.06,0-2.15,0-3.26.09-2.24.13-3.37.18-2.24.26-3.35.23-2.19.36-3.23c.26-2.1.56-4,.88-5.7A55.5,55.5,0,0,1,97.86,160.77Z" style="fill:#d39871"/><path d="M116.22,160.77s-.11-.28-.26-.77-.34-1.21-.51-2.06-.34-1.84-.48-2.91-.22-2.21-.27-3.35-.06-2.29,0-3.37.12-2.08.23-2.94a19,19,0,0,1,.33-2.09c.1-.51.19-.8.19-.8s.11.28.25.78.35,1.2.52,2.05.34,1.85.48,2.92.22,2.2.27,3.35,0,2.29,0,3.36-.12,2.08-.23,2.95-.22,1.58-.32,2.09S116.22,160.77,116.22,160.77Z" style="fill:#d39871"/><path d="M130.35,150.91a7.33,7.33,0,0,1,.65,1.54,12.2,12.2,0,0,1,.48,3.39,11.84,11.84,0,0,1-.48,3.39,7.33,7.33,0,0,1-.65,1.54,7.33,7.33,0,0,1-.65-1.54,11.86,11.86,0,0,1-.47-3.39,12.22,12.22,0,0,1,.47-3.39A7.33,7.33,0,0,1,130.35,150.91Z" style="fill:#d39871"/><path d="M145.33,163.85a10.57,10.57,0,0,1,.7,1.52,16.4,16.4,0,0,1,.78,3.29c.08.6.13,1.19.16,1.75s.05,1.08.06,1.53c0,.23,0,.45,0,.63s0,.37,0,.5l.05.47a2.4,2.4,0,0,1-.43-.24,2.32,2.32,0,0,1-.42-.37,4.44,4.44,0,0,1-.46-.56,8,8,0,0,1-1.22-3.41,9.8,9.8,0,0,1,.16-3.52A6.14,6.14,0,0,1,145.33,163.85Z" style="fill:#d39871"/><path d="M163.73,222c-2-4.77-3.51-8.86-3.51-10.77V164.36a4.44,4.44,0,0,0-2.18-3.59,9.58,9.58,0,0,0-5.28-1.47c-3.88,0-7.06,2-7.43,4.55a2.85,2.85,0,0,0,0,.51V152.3a4.45,4.45,0,0,0-2.19-3.59,9.63,9.63,0,0,0-5.28-1.47c-4.14,0-7.47,2.26-7.47,5.06v-8.92a4.43,4.43,0,0,0-2.18-3.58l-.07,0a9.63,9.63,0,0,0-5.22-1.44,10.88,10.88,0,0,0-2.91.4h0c-2.51.72-4.31,2.34-4.53,4.27a2.55,2.55,0,0,0,0,.39V104.46a8.35,8.35,0,0,0-2.58-6A8.81,8.81,0,0,0,109,96.25a8.93,8.93,0,0,0-2.34-.31,8.65,8.65,0,0,0-8.77,8.52v56.31c-3.87,1-6.77,8-8.54,13.74a2.79,2.79,0,0,0-.11.35c-1.29,4.26-2,7.81-2,7.81a12.19,12.19,0,0,0-1,4.75C86.1,196.88,93.9,210.7,102,222Z" style="fill:#f4be92"/><path d="M67.31,222l25.59-45.3L61.54,157.74l-4-3S51,189.39,43,222Z" style="fill:#0e81c1"/><path d="M43,222c7.92-32.59,14.46-67.26,14.46-67.26L0,222Z" style="fill:#32a2ed"/><path d="M243.31,117.91a27.66,27.66,0,0,1-5.9,8.78,25.83,25.83,0,0,1-8.31,5.53,24.83,24.83,0,0,1-16.77.89,22.93,22.93,0,0,1-6-2.82,27.28,27.28,0,0,1-4.81-4.07,38.1,38.1,0,0,1-3.81-4.81v28.21h-5.12v-70h5.12V91.52a36.12,36.12,0,0,1,3.87-5,26.09,26.09,0,0,1,4.86-4.18,24.85,24.85,0,0,1,5.95-2.87,22.66,22.66,0,0,1,7.26-1.1,25.09,25.09,0,0,1,9.46,1.88,25.7,25.7,0,0,1,8.31,5.43,27,27,0,0,1,5.9,8.73,28.92,28.92,0,0,1,2.25,11.65v.21A28.92,28.92,0,0,1,243.31,117.91Zm-3.18-11.65a25.88,25.88,0,0,0-1.68-9.51,21.59,21.59,0,0,0-4.56-7.26,20.1,20.1,0,0,0-6.7-4.6,20.33,20.33,0,0,0-8-1.62,20.56,20.56,0,0,0-8.12,1.67,22.09,22.09,0,0,0-7,4.7,23.33,23.33,0,0,0-4.87,7.21,23,23,0,0,0-1.83,9.3v.21a23.28,23.28,0,0,0,1.83,9.35,22.2,22.2,0,0,0,4.87,7.21,22.49,22.49,0,0,0,7,4.66,20.56,20.56,0,0,0,8.12,1.67,21.56,21.56,0,0,0,8.22-1.57,19.45,19.45,0,0,0,6.65-4.49A21,21,0,0,0,238.5,116a26.58,26.58,0,0,0,1.63-9.56Z" style="fill:#fff"/><path d="M296.66,132.9V123a25,25,0,0,1-7.32,7.94q-4.6,3.24-11.91,3.24a23.62,23.62,0,0,1-9-1.62A18.8,18.8,0,0,1,257.52,121a26.51,26.51,0,0,1-1.41-8.83V79.61h5.12v31.66q0,8.27,4.39,13.22t12.54,5a18.54,18.54,0,0,0,7.26-1.42,18.19,18.19,0,0,0,5.91-3.91,17.81,17.81,0,0,0,3.91-6,20.35,20.35,0,0,0,1.42-7.68V79.61h5.12V132.9Z" style="fill:#fff"/><path d="M339.13,133.37a21.55,21.55,0,0,1-10.4-.36,12.33,12.33,0,0,1-7.94-7.26,16.93,16.93,0,0,1-1.15-6.53V84.31h-7.73v-4.7h7.73v-17h5.12v17h18.71v4.7H324.76v34.3c0,3.83,1,6.5,3,8a12.24,12.24,0,0,0,7.68,2.29,17.49,17.49,0,0,0,3.76-.39,22.81,22.81,0,0,0,4.08-1.38V132A21.94,21.94,0,0,1,339.13,133.37Z" style="fill:#fff"/><path d="M382.44,84.42a22.74,22.74,0,0,0-8.77,1.72,21,21,0,0,0-7.37,5.12,24.88,24.88,0,0,0-5.07,8.36,32.28,32.28,0,0,0-1.88,11.44V132.9h-5.12V79.61h5.12V94.76a30.17,30.17,0,0,1,4-6.58A26.27,26.27,0,0,1,368.75,83a23,23,0,0,1,6.64-3.24,23.74,23.74,0,0,1,7.58-1v5.64Z" style="fill:#fff"/><path d="M425.6,132.9V124a26.4,26.4,0,0,1-3.29,3.71,22.45,22.45,0,0,1-4.44,3.24,25.41,25.41,0,0,1-5.7,2.3,25.87,25.87,0,0,1-6.95.89,26.76,26.76,0,0,1-7.42-1,21.26,21.26,0,0,1-6.58-3.13,16.53,16.53,0,0,1-4.75-5.23,14.22,14.22,0,0,1-1.83-7.31v-.21a15.23,15.23,0,0,1,6.48-12.85,22,22,0,0,1,7.31-3.35,37,37,0,0,1,9.51-1.15,64.72,64.72,0,0,1,9.72.63,74.94,74.94,0,0,1,7.94,1.67V99.9q0-8.12-4.65-12.16t-12.9-4a31.69,31.69,0,0,0-9,1.2A44,44,0,0,0,391.33,88l-1.89-4.5a54.33,54.33,0,0,1,8.89-3.41,36.3,36.3,0,0,1,10-1.28q10.35,0,16.3,5.22t6,15.68V132.9Zm.1-26q-3.34-.84-7.83-1.62a60.36,60.36,0,0,0-10.24-.78q-8.47,0-13,3.38a10.69,10.69,0,0,0-4.55,9v.21a10.32,10.32,0,0,0,1.26,5.15,11.61,11.61,0,0,0,3.39,3.8,16,16,0,0,0,5,2.39,20.5,20.5,0,0,0,5.86.84,24.67,24.67,0,0,0,7.73-1.2,21.41,21.41,0,0,0,6.43-3.33,16,16,0,0,0,4.38-5.15,13.84,13.84,0,0,0,1.62-6.66Z" style="fill:#fff"/><path d="M241.31,115.91a27.66,27.66,0,0,1-5.9,8.78,25.83,25.83,0,0,1-8.31,5.53,24.83,24.83,0,0,1-16.77.89,22.93,22.93,0,0,1-6-2.82,27.28,27.28,0,0,1-4.81-4.07,38.1,38.1,0,0,1-3.81-4.81v28.21h-5.12v-70h5.12V89.52a36.12,36.12,0,0,1,3.87-5,26.09,26.09,0,0,1,4.86-4.18,24.85,24.85,0,0,1,5.95-2.87,22.66,22.66,0,0,1,7.26-1.1,25.09,25.09,0,0,1,9.46,1.88,25.7,25.7,0,0,1,8.31,5.43,27,27,0,0,1,5.9,8.73,28.92,28.92,0,0,1,2.25,11.65v.21A28.92,28.92,0,0,1,241.31,115.91Zm-3.18-11.65a25.88,25.88,0,0,0-1.68-9.51,21.59,21.59,0,0,0-4.56-7.26,20.1,20.1,0,0,0-6.7-4.6,20.33,20.33,0,0,0-8-1.62,20.56,20.56,0,0,0-8.12,1.67,22.09,22.09,0,0,0-7,4.7,23.33,23.33,0,0,0-4.87,7.21,23,23,0,0,0-1.83,9.3v.21a23.28,23.28,0,0,0,1.83,9.35,22.2,22.2,0,0,0,4.87,7.21,22.49,22.49,0,0,0,7,4.66,20.56,20.56,0,0,0,8.12,1.67,21.56,21.56,0,0,0,8.22-1.57,19.45,19.45,0,0,0,6.65-4.49A21,21,0,0,0,236.5,114a26.58,26.58,0,0,0,1.63-9.56Z" style="fill:#6d6d6d"/><path d="M294.66,130.9V121a25,25,0,0,1-7.32,7.94q-4.6,3.24-11.91,3.24a23.62,23.62,0,0,1-9-1.62A18.8,18.8,0,0,1,255.52,119a26.51,26.51,0,0,1-1.41-8.83V77.61h5.12v31.66q0,8.27,4.39,13.22t12.54,5a18.54,18.54,0,0,0,7.26-1.42,18.19,18.19,0,0,0,5.91-3.91,17.81,17.81,0,0,0,3.91-6,20.35,20.35,0,0,0,1.42-7.68V77.61h5.12V130.9Z" style="fill:#6d6d6d"/><path d="M337.13,131.37a21.55,21.55,0,0,1-10.4-.36,12.33,12.33,0,0,1-7.94-7.26,16.93,16.93,0,0,1-1.15-6.53V82.31h-7.73v-4.7h7.73v-17h5.12v17h18.71v4.7H322.76v34.3c0,3.83,1,6.5,3,8a12.24,12.24,0,0,0,7.68,2.29,17.49,17.49,0,0,0,3.76-.39,22.81,22.81,0,0,0,4.08-1.38V130A21.94,21.94,0,0,1,337.13,131.37Z" style="fill:#6d6d6d"/><path d="M380.44,82.42a22.74,22.74,0,0,0-8.77,1.72,21,21,0,0,0-7.37,5.12,24.88,24.88,0,0,0-5.07,8.36,32.28,32.28,0,0,0-1.88,11.44V130.9h-5.12V77.61h5.12V92.76a30.17,30.17,0,0,1,4-6.58A26.27,26.27,0,0,1,366.75,81a23,23,0,0,1,6.64-3.24,23.74,23.74,0,0,1,7.58-1v5.64Z" style="fill:#6d6d6d"/><path d="M423.6,130.9V122a26.4,26.4,0,0,1-3.29,3.71,22.45,22.45,0,0,1-4.44,3.24,25.41,25.41,0,0,1-5.7,2.3,25.87,25.87,0,0,1-6.95.89,26.76,26.76,0,0,1-7.42-1,21.26,21.26,0,0,1-6.58-3.13,16.53,16.53,0,0,1-4.75-5.23,14.22,14.22,0,0,1-1.83-7.31v-.21a15.23,15.23,0,0,1,6.48-12.85A22,22,0,0,1,396.43,99a37,37,0,0,1,9.51-1.15,64.72,64.72,0,0,1,9.72.63,74.94,74.94,0,0,1,7.94,1.67V97.9q0-8.12-4.65-12.16t-12.9-4a31.69,31.69,0,0,0-9,1.2A44,44,0,0,0,389.33,86l-1.89-4.5a54.33,54.33,0,0,1,8.89-3.41,36.3,36.3,0,0,1,10-1.28q10.35,0,16.3,5.22t6,15.68V130.9Zm.1-26q-3.34-.84-7.83-1.62a60.36,60.36,0,0,0-10.24-.78q-8.47,0-13,3.38a10.69,10.69,0,0,0-4.55,9v.21a10.32,10.32,0,0,0,1.26,5.15,11.61,11.61,0,0,0,3.39,3.8,16,16,0,0,0,5,2.39,20.5,20.5,0,0,0,5.86.84,24.67,24.67,0,0,0,7.73-1.2,21.41,21.41,0,0,0,6.43-3.33,16,16,0,0,0,4.38-5.15,13.84,13.84,0,0,0,1.62-6.66Z" style="fill:#6d6d6d"/></svg>