<svg id="Layer_1" enable-background="new 0 0 512 512" height="512" viewBox="0 0 512 512" width="512" xmlns="http://www.w3.org/2000/svg"><path d="m75.762 75.874c-11.407 8.645-25.005 25.21-25.005 55.037 0 23.11 1.235 49.825 10.396 72.736 12.319 30.807 36.297 47.09 69.342 47.09s57.022-16.283 69.341-47.091c9.161-22.91 10.396-49.624 10.396-72.735 0-80.421-97.908-82.743-134.47-55.037z" fill="#c69a85"/><path d="m327.203 75.874c-11.407 8.645-25.005 25.21-25.005 55.037 0 23.111 1.235 49.825 10.396 72.735 12.318 30.808 36.296 47.091 69.341 47.091s57.022-16.283 69.341-47.091c9.161-22.91 10.396-49.624 10.396-72.735.001-80.433-97.936-82.722-134.469-55.037z" fill="#c69a85"/><path d="m409.81 274.948h-56.178c-45.835 0-84.718 30.333-97.632 71.979-12.914-41.646-51.796-71.979-97.632-71.979h-56.178c-56.347 0-102.19 45.843-102.19 102.191v6.667c0 34.746 28.268 63.014 63.014 63.014h134.531c26.444 0 49.121-16.381 58.455-39.522 9.334 23.141 32.011 39.522 58.455 39.522h134.531c34.746 0 63.014-28.268 63.014-63.014v-6.667c0-56.348-45.843-102.191-102.19-102.191z" fill="#fc93a0"/><path d="m255.303.133c-66.197 0-105.718 34.82-105.718 93.146 0 31.91 1.684 68.74 14.168 99.962 16.268 40.681 47.925 62.184 91.55 62.184s75.282-21.503 91.55-62.184c12.484-31.222 14.168-68.052 14.168-99.962 0-58.325-39.521-93.146-105.718-93.146z" fill="#dfb7a4"/><path d="m294.538 282.981h-79.076c-75.721 0-137.323 61.603-137.323 137.323v9.385c0 45.313 36.864 82.178 82.178 82.178h189.367c45.313 0 82.178-36.865 82.178-82.178v-9.385c-.001-75.721-61.603-137.323-137.324-137.323z" fill="#ae5ecc"/><path d="m267.441 377.139c52.386 31.767 110.129 46.329 164.421 51.106v-7.941c0-75.721-61.603-137.323-137.323-137.323h-79.076c-46.61 0-87.864 23.348-112.7 58.956 55.135-3.927 113.073 3.908 164.678 35.202z" fill="#ae67ce"/><path d="m255.303.133c-66.197 0-105.718 34.82-105.718 93.146 0 15.365.395 31.87 2.193 48.34 49.034 17.567 98.64 24.497 139.093 7.382 22.027-9.319 45.356-14.83 68.9-17.565 1.001-13.046 1.25-25.961 1.25-38.157 0-58.325-39.521-93.146-105.718-93.146z" fill="#e0c8bf"/><path d="m46.378 397.424c-12.819-50.509-2.389-87.727 10.854-112.038-33.867 16.662-57.232 51.528-57.232 91.753v6.667c0 34.746 28.268 63.014 63.014 63.014h12.509c-14.092-14.926-24.579-31.406-29.145-49.396z" fill="#fda5b7"/><path d="m439.171 279.253c23.843 60.349 40.426 95.523 47.095 155.315 15.593-11.482 25.734-29.956 25.734-50.762v-6.667c0-46.146-30.748-85.239-72.829-97.886z" fill="#fda5b7"/><path d="m74.015 77.253c-11.002 8.981-23.258 25.339-23.258 53.658 0 23.11 1.235 49.825 10.396 72.736 12.149 30.38 36.23 47.871 71.573 47.055-25.435-38.88-69.564-116.573-58.711-173.449z" fill="#dfb7a4"/><path d="m382.045 60.106c20.604 46.803 50.334 132.522 21.819 187.898 21.822-5.814 38.014-20.853 47.413-44.358 9.161-22.91 10.396-49.624 10.396-72.735 0-46.097-32.283-70.768-79.628-70.805z" fill="#dfb7a4"/><path d="m409.81 274.948c-58.989 0-73.046-2.338-98.234 9.089-11.242-1.397-9.723-1.056-96.114-1.056-5.221 0-10.373.303-15.444.874-25.018-11.219-39.032-8.907-97.827-8.907-56.348 0-102.191 45.843-102.191 102.191v6.667c0 34.746 28.268 63.014 63.014 63.014h16.934c7.904 37.116 40.93 65.047 80.369 65.047h189.367c39.439 0 72.465-27.931 80.369-65.047h18.934c34.746 0 63.014-28.268 63.014-63.014v-6.667c-.001-56.348-45.844-102.191-102.191-102.191zm-331.552 139.872h-15.244c-17.101 0-31.014-13.913-31.014-31.014v-6.667c0-38.704 31.487-70.191 70.19-70.191h35.851c-34.729 23.794-58.016 63.113-59.783 107.872zm321.603 14.869c0 27.668-22.51 50.178-50.178 50.178h-189.367c-27.668 0-50.178-22.51-50.178-50.178v-9.385c0-58.075 47.248-105.323 105.323-105.323h79.076c58.075 0 105.323 47.248 105.323 105.323v9.385zm80.139-45.883c0 17.101-13.913 31.014-31.014 31.014h-17.244c-1.768-44.759-25.054-84.078-59.783-107.872h37.851c38.703 0 70.19 31.487 70.19 70.191z"/><path d="m130.495 250.737c22.946 0 41.514-7.86 54.848-22.975 17.403 18.21 41.05 27.663 69.96 27.663 29.444 0 53.426-9.81 70.915-28.685 13.39 15.779 32.264 23.998 55.718 23.998 33.045 0 57.022-16.283 69.341-47.091 9.161-22.91 10.396-49.624 10.396-72.735 0-41.883-27.601-70.806-79.737-70.806-9.043 0-17.419.864-25.106 2.568-11.785-39.686-47.9-62.54-101.526-62.54-53.474 0-89.535 22.726-101.424 62.205-7.215-1.467-15.003-2.233-23.384-2.233-52.132 0-79.738 28.917-79.738 70.806 0 23.11 1.235 49.825 10.396 72.736 12.319 30.806 36.296 47.089 69.341 47.089zm299.178-119.826c0 20.064-.964 42.985-8.108 60.854-7.459 18.653-19.682 26.972-39.629 26.972-17.717 0-29.337-6.569-36.941-21.107 13.806-31.175 15.975-68.965 16.023-103.1 5.685-1.526 12.566-2.425 20.917-2.425 11.807 0 47.738 0 47.738 38.806zm-228.147-84.402c25.465-19.296 82.09-19.294 107.553 0 13.419 10.169 19.941 25.468 19.941 46.77 0 65.258-8.526 130.146-73.718 130.146-65.24 0-73.718-65.002-73.718-130.146.001-21.302 6.523-36.601 19.942-46.77zm-71.031 45.596c4.207 0 11.477.014 19.091 1.77.023 34.829 2.183 73.835 16.854 105.577-7.612 13.267-18.985 19.285-35.945 19.285-19.948 0-32.17-8.318-39.629-26.972-7.146-17.87-8.109-40.79-8.109-60.854 0-9.598 0-38.806 47.738-38.806z"/></svg>