<svg id="Layer_1" enable-background="new 0 0 504.131 504.131" height="512" viewBox="0 0 504.131 504.131" width="512" xmlns="http://www.w3.org/2000/svg"><path d="m453.844 114.387h-403.566c-27.659 0-50.162 22.503-50.162 50.162v256.563c0 27.659 22.502 50.161 50.162 50.161h403.565c27.659 0 50.162-22.502 50.162-50.161v-256.563c0-27.659-22.502-50.162-50.161-50.162z" fill="#c69a85"/><path d="m329.268 146.387h-154.414c-8.836 0-16-7.163-16-16v-59.751c0-20.832 16.948-37.779 37.78-37.779h110.854c20.832 0 37.78 16.947 37.78 37.779v59.751c0 8.837-7.164 16-16 16zm-138.414-32h122.414v-43.751c0-3.187-2.593-5.779-5.78-5.779h-110.854c-3.187 0-5.78 2.593-5.78 5.779z" fill="#80b9ed"/><path d="m453.844 114.387h-403.566c-27.659 0-50.162 22.503-50.162 50.162 0 25.124-2.573 47.687 16.466 73.061 10.772 14.356 25.575 24.597 42.808 29.614l167.344 48.723c16.567 4.823 34.082 4.825 50.652 0l167.344-48.723c17.233-5.018 32.036-15.258 42.808-29.614 19.125-25.488 16.466-48.283 16.466-73.061.001-27.659-22.501-50.162-50.16-50.162z" fill="#e0c8bf"/><path d="m453.844 114.387h-403.566c-25.015 0-45.808 18.407-49.556 42.387 41.488 2.466 92.287 13.715 144.126 45.189 122.509 74.381 318.076 16.519 358.784-43.433-2.986-24.83-24.168-44.143-49.788-44.143z" fill="#e8d9d4"/><path d="m90.492 373.845c-28.974-12.953-59.924-19.892-90.375-22.916v70.184c0 27.659 22.502 50.161 50.162 50.161h403.565c27.659 0 50.162-22.502 50.162-50.161v-12.901c-99.942 33.736-312.72 10.694-413.514-34.367z" fill="#dfb7a4"/><path d="m453.844 114.387h-108.576v-43.751c0-20.832-16.948-37.779-37.78-37.779h-110.854c-20.832 0-37.78 16.947-37.78 37.779v43.751h-108.576c-27.659 0-50.162 22.503-50.162 50.162v256.563c0 27.659 22.502 50.161 50.162 50.161h403.565c27.659 0 50.162-22.502 50.162-50.161v-256.563c0-27.659-22.502-50.162-50.161-50.162zm-262.99-43.751c0-3.187 2.593-5.779 5.78-5.779h110.854c3.187 0 5.78 2.593 5.78 5.779v43.751h-122.414zm-158.738 93.913c0-10.015 8.147-18.162 18.162-18.162h403.565c10.014 0 18.162 8.147 18.162 18.162v23.681c0 22.212-14.894 42.061-36.22 48.27l-167.345 48.723c-10.715 3.121-22.043 3.121-32.76 0l-167.344-48.723c-21.326-6.209-36.22-26.058-36.22-48.27zm421.728 274.725h-403.566c-10.014 0-18.162-8.147-18.162-18.161v-167.734c8.063 6.232 17.254 10.927 27.274 13.845 184.859 53.822 175.358 52.341 192.67 52.341 17.541 0 7.595 1.544 192.67-52.341 10.021-2.918 19.212-7.613 27.274-13.845v167.733c.001 10.015-8.146 18.162-18.16 18.162z"/></svg>