<svg id="Layer_1" enable-background="new 0 0 508.354 508.354" height="512" viewBox="0 0 508.354 508.354" width="512" xmlns="http://www.w3.org/2000/svg"><path d="m373.384 62.025h-238.414c-26.262 0-47.627 21.365-47.627 47.627v351.075c0 26.262 21.365 47.627 47.627 47.627h238.414c26.262 0 47.627-21.365 47.627-47.627v-351.075c0-26.261-21.365-47.627-47.627-47.627z" fill="#eed572"/><path d="m303.651 312.51c52.694-49.38 90.5-73.584 117.36-84.249v-118.609c0-26.262-21.365-47.627-47.627-47.627h-238.414c-26.262 0-47.627 21.365-47.627 47.627v278.181c55.79 8.524 135.356.539 216.308-75.323z" fill="#fee67b"/><path d="m421.011 173.181v-63.528c0-26.262-21.365-47.627-47.627-47.627h-238.414c-20.852 0-38.604 13.475-45.038 32.17 33.568-1.29 76.369 8.101 128.449 40.279 61.121 37.762 135.988 44.145 202.63 38.706z" fill="#feeb95"/><path d="m254.177 306.246c-44.989 0-87.277 34.706-87.277 90.577 0 16.541 13.409 29.949 29.949 29.949h114.656c16.541 0 29.949-13.409 29.949-29.949.001-55.728-42.192-90.577-87.277-90.577z" fill="#c69a85"/><ellipse cx="254.177" cy="252.909" fill="#c69a85" rx="53.336" ry="53.336" transform="matrix(.924 -.383 .383 .924 -77.436 116.521)"/><path d="m264.022 0h-19.689c-28.389 0-51.485 23.097-51.485 51.485v51.782c0 28.39 23.097 51.486 51.485 51.486h19.689c28.389 0 51.485-23.097 51.485-51.486v-51.782c0-28.388-23.096-51.485-51.485-51.485z" fill="#f0a567"/><path d="m373.384 62.025h-57.877v-10.54c0-28.388-23.096-51.485-51.485-51.485h-19.689c-28.389 0-51.485 23.097-51.485 51.485v10.54h-57.878c-26.262 0-47.627 21.365-47.627 47.627v351.075c0 26.262 21.365 47.627 47.627 47.627h238.414c26.262 0 47.627-21.365 47.627-47.627v-351.075c0-26.261-21.365-47.627-47.627-47.627zm-148.537-10.54c0-10.744 8.741-19.485 19.485-19.485h19.689c10.744 0 19.485 8.741 19.485 19.485v51.782c0 10.745-8.741 19.486-19.485 19.486h-19.689c-10.744 0-19.485-8.741-19.485-19.486zm164.164 409.243c0 8.617-7.011 15.627-15.627 15.627h-238.414c-8.616 0-15.627-7.01-15.627-15.627v-351.076c0-8.617 7.011-15.627 15.627-15.627h57.877v9.242c0 28.39 23.097 51.486 51.485 51.486h19.689c28.389 0 51.485-23.097 51.485-51.486v-9.242h57.877c8.616 0 15.627 7.01 15.627 15.627v351.076z"/><path d="m302.698 302.377c44.182-43.345 13.356-118.804-48.521-118.804-61.889 0-92.696 75.465-48.521 118.804-32.096 17.154-54.757 50.114-54.757 94.445 0 25.337 20.612 45.949 45.949 45.949h114.656c25.337 0 45.949-20.612 45.949-45.949.002-43.991-22.359-77.13-54.755-94.445zm-85.857-49.468c0-20.587 16.749-37.336 37.336-37.336s37.336 16.749 37.336 37.336c0 20.588-16.749 37.337-37.336 37.337s-37.336-16.749-37.336-37.337zm108.614 143.913c0 7.691-6.258 13.949-13.949 13.949h-114.657c-7.691 0-13.949-6.258-13.949-13.949 0-46.224 34.534-74.576 71.277-74.576 36.303 0 71.278 27.797 71.278 74.576z"/></svg>