<svg id="Layer_1" enable-background="new 0 0 507.105 507.105" height="512" viewBox="0 0 507.105 507.105" width="512" xmlns="http://www.w3.org/2000/svg"><path d="m343.015 475.105c-29.447 0-53.403-23.956-53.403-53.402v-263.064c0-8.837-7.164-16-16-16h-257.2c-8.836 0-16 7.163-16 16v263.064c0 47.091 38.312 85.402 85.403 85.402h257.2c8.836 0 16-7.163 16-16s-7.164-16-16-16z" fill="#d3d1d1"/><path d="m490.771 0h-312.045c-8.836 0-16 7.163-16 16v405.703c0 29.446-23.957 53.402-53.403 53.402-8.836 0-16 7.163-16 16s7.164 16 16 16h312.044c47.091 0 85.403-38.312 85.403-85.402v-405.703c.001-8.837-7.163-16-15.999-16z" fill="#e0e0e0"/><path d="m314.809 321.702c48.346 36.505 121.558 43.765 191.962 39.353v-345.055c0-8.837-7.164-16-16-16h-312.045c-8.836 0-16 7.163-16 16v253.073c55.595 6.564 111.169 21.736 152.083 52.629z" fill="#eaeaea"/><path d="m506.771 16c0-8.837-7.164-16-16-16h-312.045c-8.836 0-16 7.163-16 16v161.271c23.269 7.035 71.308 10.677 137.321-40.322 48.735-37.651 134.546-52.72 206.724-58.462z" fill="#f9f9f9"/><path d="m77.674 142.639h-61.262c-8.836 0-16 7.163-16 16 0 286.948-.551 267.18 1.29 277.752 22.362-15.82 40.557-54.944 44.11-137.428 3.244-75.311 15.949-124.405 31.862-156.324z" fill="#e0e0e0"/><path d="m490.771 0h-312.045c-8.836 0-16 7.163-16 16v126.639h-146.314c-8.836 0-16 7.163-16 16v263.064c0 47.091 38.312 85.402 85.403 85.402h335.553c47.091 0 85.403-38.312 85.403-85.402v-405.703c0-8.837-7.164-16-16-16zm-458.359 421.703v-247.064h130.314v247.064c0 29.446-23.957 53.402-53.403 53.402h-23.508c-29.446 0-53.403-23.956-53.403-53.402zm442.359 0c0 29.446-23.957 53.402-53.403 53.402h-245.443c11.759-14.635 18.801-33.211 18.801-53.402v-389.703h280.044v389.703z"/><path d="m266.802 177.89h152.915c8.836 0 16-7.163 16-16s-7.164-16-16-16h-152.915c-8.836 0-16 7.163-16 16s7.164 16 16 16z"/><path d="m266.802 270.053h152.915c8.836 0 16-7.163 16-16s-7.164-16-16-16h-152.915c-8.836 0-16 7.163-16 16s7.164 16 16 16z"/><path d="m266.802 362.216h152.915c8.836 0 16-7.163 16-16s-7.164-16-16-16h-152.915c-8.836 0-16 7.163-16 16s7.164 16 16 16z"/></svg>