<?xml version="1.0" encoding="utf-8"?>
<!-- Generator: Adobe Illustrator 23.0.1, SVG Export Plug-In . SVG Version: 6.00 Build 0)  -->
<svg version="1.1" id="Layer_1" xmlns="http://www.w3.org/2000/svg" xmlns:xlink="http://www.w3.org/1999/xlink" x="0px" y="0px"
	 viewBox="0 0 327 490.5" style="enable-background:new 0 0 327 490.5;" xml:space="preserve">
<style type="text/css">
	.st0{fill:#FFFFFF;}
	.st1{fill:url(#SVGID_1_);}
	.st2{fill:url(#SVGID_2_);}
	.st3{fill:url(#SVGID_3_);}
	.st4{fill:url(#SVGID_4_);}
	.st5{fill:url(#SVGID_5_);}
	.st6{fill:url(#SVGID_6_);}
	.st7{fill:url(#SVGID_7_);}
	.st8{fill:url(#SVGID_8_);}
	.st9{fill:url(#SVGID_9_);}
	.st10{fill:url(#SVGID_10_);}
	.st11{fill:url(#SVGID_11_);}
	.st12{fill:url(#SVGID_12_);}
	.st13{fill:url(#SVGID_13_);}
	.st14{fill:#E26907;}
</style>
<g id="QR_Code-Smartphone-Scan-Code-QR_Scan_1_">
	<path class="st0" d="M278,0H49C22,0,0,22,0,49v392.4c0,27.1,22,49,49,49H278c27.1,0,49-22,49-49V49C327,22,305,0,278,0z
		 M310.6,441.5c0,18.1-14.6,32.7-32.7,32.7H49c-18.1,0-32.7-14.6-32.7-32.7V49C16.4,31,31,16.4,49,16.4H278
		c18.1,0,32.7,14.6,32.7,32.7V441.5z"/>
	<path class="st0" d="M139,32.7h49V49h-49V32.7z"/>
	<path class="st0" d="M81.8,188h32.7c4.5,0,8.2-3.7,8.2-8.2v-32.7c0-4.5-3.7-8.2-8.2-8.2H81.8c-4.5,0-8.2,3.7-8.2,8.2v32.7
		C73.6,184.4,77.2,188,81.8,188z M89.9,155.3h16.3v16.4H89.9V155.3z"/>
	<path class="st0" d="M245.3,139h-32.7c-4.5,0-8.2,3.7-8.2,8.2v32.7c0,4.5,3.7,8.2,8.2,8.2h32.7c4.5,0,8.2-3.7,8.2-8.2v-32.7
		C253.4,142.6,249.8,139,245.3,139z M237.1,171.7h-16.3v-16.4h16.3V171.7z"/>
	<path class="st0" d="M122.6,278c0-4.5-3.7-8.2-8.2-8.2H81.8c-4.5,0-8.2,3.7-8.2,8.2v32.7c0,4.5,3.7,8.2,8.2,8.2h32.7
		c4.5,0,8.2-3.7,8.2-8.2V278z M106.3,302.5H89.9v-16.4h16.3V302.5z"/>
	<path class="st0" d="M89.9,237.1h16.3v16.4h16.3v-16.4h24.5v-16.3h-16.3v-16.4h-16.4v16.4H89.9v-16.4H73.6v49.1h16.4V237.1z"/>
	<path class="st0" d="M237.1,302.5h-16.3v16.4h24.5c4.5,0,8.2-3.7,8.2-8.2v-24.5h-16.4V302.5z"/>
	<path class="st0" d="M179.9,286.1h8.2v-16.4h-8.2v-24.5h-16.4v24.5H139v16.4h24.5v16.4H139v16.4h65.4v-16.4h-24.5V286.1z"/>
	<path class="st0" d="M237.1,204.4h16.4v65.4h-16.4V204.4z"/>
	<path class="st0" d="M163.5,212.6H188v16.3h-24.5V212.6z"/>
	<path class="st0" d="M204.4,269.8h16.4v16.4h-16.4V269.8z"/>
	<path class="st0" d="M155.3,196.2h16.4V188H188v-16.3h-16.3v-16.4H188V139h-49v16.3h16.3V196.2z"/>
	<path class="st0" d="M204.4,212.6h16.4v40.9h-16.4V212.6z"/>
</g>
<path class="st0" d="M53.6,429v13.4c0,5.8-2.9,8.8-8.6,8.8c-2.9,0-5-0.7-6.4-2.2c-1.3-1.4-2-3.6-2-6.6v-20.1c0-3.5,0.8-6.1,2.3-7.8
	c1.5-1.7,4-2.6,7.3-2.6h21.4c2.3,0,3.5-0.8,3.5-2.6s-1.2-2.6-3.5-2.6H44.8c-2.3,0.2-4.5-0.6-6.1-2.1c-1.4-1.4-2.1-3.6-2.1-6.4
	c0-2.8,0.6-4.9,1.9-6.4c1.3-1.4,3.4-2.1,6.2-2.1h22c12.8,0,19.1,6.6,19.1,19.7c0,13.1-6.3,19.7-19,19.7H53.6z"/>
<path class="st0" d="M114,451.3c-15.6,0-23.5-9-23.5-27.1v-25.9c0-1.2,0.2-2.5,0.7-3.6c0.4-1,1.1-1.9,1.9-2.6
	c0.8-0.7,1.7-1.3,2.7-1.6c1-0.4,2.2-0.5,3.3-0.5c2.2,0,4.3,0.7,6,2.2c1.8,1.6,2.7,3.9,2.5,6.3v28.5c0,5.1,2.3,7.7,6.9,7.7
	c4.6,0,6.9-2.6,6.9-7.7v-28.5c-0.1-2.4,0.8-4.6,2.5-6.2c1.6-1.4,3.7-2.2,5.9-2.2c2.2,0,4.3,0.7,6,2.2c1.8,1.6,2.7,3.9,2.6,6.3v25.9
	c0,18.1-7.9,27.1-23.6,27.1H114z"/>
<path class="st0" d="M157.7,406.8h-5.9c-2.4,0.1-4.7-0.8-6.3-2.6c-1.5-1.7-2.3-3.8-2.3-6c0-2.2,0.8-4.4,2.3-6
	c1.6-1.7,3.9-2.7,6.3-2.5h28.6c2.4-0.1,4.7,0.8,6.3,2.5c1.5,1.6,2.3,3.8,2.3,6c0,2.2-0.8,4.4-2.3,6c-1.6,1.8-3.9,2.7-6.3,2.6h-5.8
	v35.9c0.2,2.4-0.8,4.7-2.5,6.3c-1.7,1.4-3.8,2.2-6,2.2c-1.1,0-2.2-0.2-3.3-0.5c-1-0.3-1.9-0.9-2.7-1.6c-0.8-0.7-1.4-1.6-1.8-2.6
	c-0.5-1.2-0.7-2.4-0.7-3.6L157.7,406.8z"/>
<path class="st0" d="M198.9,430.9c-4.5-3.5-6.7-6.4-6.7-8.7c0-6.8,3.2-10.2,9.6-10.2h21.4c2.3,0,3.4-0.8,3.4-2.6s-1.1-2.6-3.4-2.6
	h-22.9c-2.3,0.2-4.5-0.6-6.1-2.1c-1.4-1.4-2.1-3.6-2.1-6.4c0-2.8,0.6-4.9,1.9-6.4c1.3-1.4,3.4-2.1,6.2-2.1h22.1
	c12.7,0,19.1,6.6,19.1,19.7c0,12.8-6,19.3-18.1,19.7h-1.7l7.3,7c1.1,1,1.9,2.2,2.5,3.6c0.5,1,0.7,2.1,0.8,3.2c0,1.1-0.3,2.1-0.7,3.1
	c-0.5,1.1-1.1,2-1.9,2.9c-0.8,0.8-1.7,1.5-2.7,2.1c-0.9,0.5-1.9,0.8-3,0.8c-2.3,0-4.6-1-7.2-3.1L198.9,430.9z"/>
<path class="st0" d="M278,442.9h-21.7l-1.3,3c-0.5,1.7-1.6,3.2-3,4.2c-1.3,0.9-2.8,1.3-4.3,1.3c-1.2,0-2.4-0.2-3.5-0.6
	c-1.1-0.4-2.1-0.9-2.9-1.6c-0.9-0.7-1.6-1.6-2-2.6c-0.5-1-0.8-2.2-0.7-3.3c0-1.2,0.2-2.3,0.6-3.4l9.3-20.6c0.6-1.7,1.7-3.2,3.1-4.3
	c1.3-0.9,2.8-1.4,4.4-1.4c1.2,0,2.3,0.2,3.4,0.6c1.1,0.4,2,1,2.9,1.7c0.8,0.7,1.5,1.6,2,2.6c0.5,1,0.8,2.2,0.8,3.3
	c0,0.5,0,1.1-0.1,1.6c-0.1,0.6-0.3,1.2-0.5,1.7l-1,2.2h8.3l-10.9-26.4c-0.4-1-0.7-2.2-0.7-3.3c0-1.1,0.3-2.3,0.8-3.3
	c0.5-1,1.2-1.8,2-2.6c1.8-1.5,4-2.3,6.3-2.3c1.6,0,3.1,0.5,4.4,1.3c1.4,1.1,2.5,2.5,3.1,4.2l18.6,44.8c0.3,0.6,0.4,1.2,0.5,1.8
	c0,0.5,0.1,1.1,0.2,1.6c0,1.1-0.3,2.3-0.8,3.3c-0.5,1-1.2,1.9-2,2.6c-0.9,0.7-1.9,1.3-2.9,1.6c-1.1,0.4-2.2,0.6-3.4,0.6
	c-3.4,0-5.9-1.8-7.4-5.5L278,442.9z"/>
<title>putralogo</title>
<g id="QR_Code-Smartphone-Scan-Code-QR_Scan">
	
		<linearGradient id="SVGID_1_" gradientUnits="userSpaceOnUse" x1="-275.25" y1="-200.825" x2="-275.25" y2="-265.575" gradientTransform="matrix(8 0 0 8 2366 2113)">
		<stop  offset="0" style="stop-color:#E93E3A"/>
		<stop  offset="0.35" style="stop-color:#ED683C"/>
		<stop  offset="0.7" style="stop-color:#F3903F"/>
		<stop  offset="1" style="stop-color:#FDC70C"/>
	</linearGradient>
	<path class="st1" d="M276,2H52C25.5,2,4,23.5,4,50v384c0,26.5,21.5,48,48,48h224c26.5,0,48-21.5,48-48V50C324,23.5,302.5,2,276,2z
		 M308,434c0,17.7-14.3,32-32,32H52c-17.7,0-32-14.3-32-32V50c0-17.7,14.3-32,32-32h224c17.7,0,32,14.3,32,32V434z"/>
	
		<linearGradient id="SVGID_2_" gradientUnits="userSpaceOnUse" x1="-275.25" y1="-200.825" x2="-275.25" y2="-265.575" gradientTransform="matrix(8 0 0 8 2366 2113)">
		<stop  offset="0" style="stop-color:#E93E3A"/>
		<stop  offset="0.35" style="stop-color:#ED683C"/>
		<stop  offset="0.7" style="stop-color:#F3903F"/>
		<stop  offset="1" style="stop-color:#FDC70C"/>
	</linearGradient>
	<path class="st2" d="M140,34h48v16h-48V34z"/>
	
		<linearGradient id="SVGID_3_" gradientUnits="userSpaceOnUse" x1="-283.25" y1="-200.825" x2="-283.25" y2="-265.575" gradientTransform="matrix(8 0 0 8 2366 2113)">
		<stop  offset="0" style="stop-color:#E93E3A"/>
		<stop  offset="0.35" style="stop-color:#ED683C"/>
		<stop  offset="0.7" style="stop-color:#F3903F"/>
		<stop  offset="1" style="stop-color:#FDC70C"/>
	</linearGradient>
	<path class="st3" d="M84,186h32c4.4,0,8-3.6,8-8v-32c0-4.4-3.6-8-8-8H84c-4.4,0-8,3.6-8,8v32C76,182.4,79.6,186,84,186z M92,154h16
		v16H92V154z"/>
	
		<linearGradient id="SVGID_4_" gradientUnits="userSpaceOnUse" x1="-267.25" y1="-200.825" x2="-267.25" y2="-265.575" gradientTransform="matrix(8 0 0 8 2366 2113)">
		<stop  offset="0" style="stop-color:#E93E3A"/>
		<stop  offset="0.35" style="stop-color:#ED683C"/>
		<stop  offset="0.7" style="stop-color:#F3903F"/>
		<stop  offset="1" style="stop-color:#FDC70C"/>
	</linearGradient>
	<path class="st4" d="M244,138h-32c-4.4,0-8,3.6-8,8v32c0,4.4,3.6,8,8,8h32c4.4,0,8-3.6,8-8v-32C252,141.6,248.4,138,244,138z
		 M236,170h-16v-16h16V170z"/>
	
		<linearGradient id="SVGID_5_" gradientUnits="userSpaceOnUse" x1="-283.25" y1="-200.825" x2="-283.25" y2="-265.575" gradientTransform="matrix(8 0 0 8 2366 2113)">
		<stop  offset="0" style="stop-color:#E93E3A"/>
		<stop  offset="0.35" style="stop-color:#ED683C"/>
		<stop  offset="0.7" style="stop-color:#F3903F"/>
		<stop  offset="1" style="stop-color:#FDC70C"/>
	</linearGradient>
	<path class="st5" d="M124,274c0-4.4-3.6-8-8-8H84c-4.4,0-8,3.6-8,8v32c0,4.4,3.6,8,8,8h32c4.4,0,8-3.6,8-8V274z M108,298H92v-16h16
		V298z"/>
	
		<linearGradient id="SVGID_6_" gradientUnits="userSpaceOnUse" x1="-281.75" y1="-200.825" x2="-281.75" y2="-265.575" gradientTransform="matrix(8 0 0 8 2366 2113)">
		<stop  offset="0" style="stop-color:#E93E3A"/>
		<stop  offset="0.35" style="stop-color:#ED683C"/>
		<stop  offset="0.7" style="stop-color:#F3903F"/>
		<stop  offset="1" style="stop-color:#FDC70C"/>
	</linearGradient>
	<path class="st6" d="M92,234h16v16h16v-16h24v-16h-16v-16h-16v16H92v-16H76v48h16V234z"/>
	
		<linearGradient id="SVGID_7_" gradientUnits="userSpaceOnUse" x1="-266.25" y1="-200.825" x2="-266.25" y2="-265.575" gradientTransform="matrix(8 0 0 8 2366 2113)">
		<stop  offset="0" style="stop-color:#E93E3A"/>
		<stop  offset="0.35" style="stop-color:#ED683C"/>
		<stop  offset="0.7" style="stop-color:#F3903F"/>
		<stop  offset="1" style="stop-color:#FDC70C"/>
	</linearGradient>
	<path class="st7" d="M236,298h-16v16h24c4.4,0,8-3.6,8-8v-24h-16V298z"/>
	
		<linearGradient id="SVGID_8_" gradientUnits="userSpaceOnUse" x1="-274.25" y1="-200.825" x2="-274.25" y2="-265.575" gradientTransform="matrix(8 0 0 8 2366 2113)">
		<stop  offset="0" style="stop-color:#E93E3A"/>
		<stop  offset="0.35" style="stop-color:#ED683C"/>
		<stop  offset="0.7" style="stop-color:#F3903F"/>
		<stop  offset="1" style="stop-color:#FDC70C"/>
	</linearGradient>
	<path class="st8" d="M180,282h8v-16h-8v-24h-16v24h-24v16h24v16h-24v16h64v-16h-24V282z"/>
	
		<linearGradient id="SVGID_9_" gradientUnits="userSpaceOnUse" x1="-265.25" y1="-200.825" x2="-265.25" y2="-265.575" gradientTransform="matrix(8 0 0 8 2366 2113)">
		<stop  offset="0" style="stop-color:#E93E3A"/>
		<stop  offset="0.35" style="stop-color:#ED683C"/>
		<stop  offset="0.7" style="stop-color:#F3903F"/>
		<stop  offset="1" style="stop-color:#FDC70C"/>
	</linearGradient>
	<path class="st9" d="M236,202h16v64h-16V202z"/>
	
		<linearGradient id="SVGID_10_" gradientUnits="userSpaceOnUse" x1="-273.75" y1="-200.825" x2="-273.75" y2="-265.575" gradientTransform="matrix(8 0 0 8 2366 2113)">
		<stop  offset="0" style="stop-color:#E93E3A"/>
		<stop  offset="0.35" style="stop-color:#ED683C"/>
		<stop  offset="0.7" style="stop-color:#F3903F"/>
		<stop  offset="1" style="stop-color:#FDC70C"/>
	</linearGradient>
	<path class="st10" d="M164,210h24v16h-24V210z"/>
	
		<linearGradient id="SVGID_11_" gradientUnits="userSpaceOnUse" x1="-269.25" y1="-200.825" x2="-269.25" y2="-265.575" gradientTransform="matrix(8 0 0 8 2366 2113)">
		<stop  offset="0" style="stop-color:#E93E3A"/>
		<stop  offset="0.35" style="stop-color:#ED683C"/>
		<stop  offset="0.7" style="stop-color:#F3903F"/>
		<stop  offset="1" style="stop-color:#FDC70C"/>
	</linearGradient>
	<path class="st11" d="M204,266h16v16h-16V266z"/>
	
		<linearGradient id="SVGID_12_" gradientUnits="userSpaceOnUse" x1="-275.25" y1="-200.825" x2="-275.25" y2="-265.575" gradientTransform="matrix(8 0 0 8 2366 2113)">
		<stop  offset="0" style="stop-color:#E93E3A"/>
		<stop  offset="0.35" style="stop-color:#ED683C"/>
		<stop  offset="0.7" style="stop-color:#F3903F"/>
		<stop  offset="1" style="stop-color:#FDC70C"/>
	</linearGradient>
	<path class="st12" d="M156,194h16v-8h16v-16h-16v-16h16v-16h-48v16h16V194z"/>
	
		<linearGradient id="SVGID_13_" gradientUnits="userSpaceOnUse" x1="-269.25" y1="-200.825" x2="-269.25" y2="-265.575" gradientTransform="matrix(8 0 0 8 2366 2113)">
		<stop  offset="0" style="stop-color:#E93E3A"/>
		<stop  offset="0.35" style="stop-color:#ED683C"/>
		<stop  offset="0.7" style="stop-color:#F3903F"/>
		<stop  offset="1" style="stop-color:#FDC70C"/>
	</linearGradient>
	<path class="st13" d="M204,210h16v40h-16V210z"/>
</g>
<path class="st14" d="M56.4,421.9V435c0,5.7-2.8,8.6-8.4,8.6c-2.8,0-4.9-0.7-6.2-2.1s-1.9-3.5-1.9-6.5v-19.7c0-3.4,0.8-5.9,2.3-7.6
	s3.9-2.5,7.1-2.5h20.9c2.3,0,3.4-0.8,3.4-2.5s-1.1-2.5-3.4-2.5H47.9c-2.2,0.1-4.4-0.6-6-2.1c-1.4-1.4-2.1-3.5-2.1-6.3
	c0-2.8,0.6-4.8,1.9-6.2s3.3-2.1,6.1-2.1h21.5c12.5,0,18.7,6.4,18.7,19.2s-6.2,19.2-18.6,19.2H56.4z"/>
<path class="st14" d="M115.6,443.6c-15.3,0-23-8.8-23-26.5v-25.4c0-1.2,0.2-2.4,0.7-3.6c0.4-1,1-1.8,1.8-2.6
	c0.8-0.7,1.7-1.2,2.6-1.6c1-0.4,2.1-0.5,3.2-0.5c2.1,0,4.2,0.7,5.9,2.1c1.7,1.6,2.6,3.8,2.5,6.1v27.9c0,5,2.2,7.5,6.7,7.5
	c4.5,0,6.7-2.5,6.8-7.5v-27.9c-0.1-2.3,0.8-4.5,2.5-6.1c1.6-1.4,3.7-2.2,5.8-2.1c2.2,0,4.3,0.7,5.9,2.1c1.7,1.6,2.7,3.8,2.5,6.1
	v25.4c0,17.7-7.7,26.5-23.1,26.5H115.6z"/>
<path class="st14" d="M158.4,400.1h-5.8c-2.3,0.1-4.6-0.8-6.2-2.5c-1.5-1.6-2.3-3.7-2.2-5.9c0-2.2,0.8-4.3,2.2-5.9
	c1.6-1.7,3.9-2.6,6.2-2.5h28c2.3-0.1,4.6,0.8,6.2,2.5c1.5,1.6,2.3,3.7,2.2,5.9c0,2.2-0.8,4.3-2.2,5.9c-1.6,1.7-3.9,2.6-6.2,2.5h-5.7
	v35.2c0.2,2.3-0.7,4.6-2.5,6.1c-1.6,1.4-3.7,2.2-5.9,2.1c-1.1,0-2.2-0.2-3.2-0.5c-1-0.3-1.9-0.9-2.6-1.6c-0.8-0.7-1.4-1.6-1.8-2.6
	c-0.4-1.1-0.7-2.3-0.6-3.6L158.4,400.1z"/>
<path class="st14" d="M198.7,423.6c-4.4-3.4-6.6-6.2-6.6-8.6c0-6.6,3.1-9.9,9.4-10h20.9c2.2,0,3.3-0.8,3.3-2.5s-1.1-2.5-3.3-2.5
	h-22.4c-2.2,0.1-4.4-0.6-6-2.1c-1.4-1.4-2.1-3.5-2.1-6.3c0-2.8,0.6-4.8,1.9-6.2s3.3-2.1,6.1-2.1h21.6c12.4,0,18.7,6.4,18.7,19.2
	c0,12.5-5.9,18.9-17.7,19.2h-1.7l7.1,6.9c1.1,1,1.9,2.2,2.5,3.5c0.5,1,0.7,2.1,0.8,3.1c0,1-0.2,2.1-0.7,3c-0.5,1-1.1,2-1.9,2.8
	c-0.8,0.8-1.6,1.5-2.6,2.1c-0.9,0.5-1.9,0.8-2.9,0.8c-2.2,0-4.5-1-7-3L198.7,423.6z"/>
<path class="st14" d="M276,435.4h-21.2l-1.3,2.9c-0.5,1.7-1.6,3.1-2.9,4.1c-1.2,0.9-2.7,1.3-4.2,1.3c-1.2,0-2.3-0.2-3.4-0.6
	c-1-0.4-2-0.9-2.9-1.6c-0.8-0.7-1.5-1.5-2-2.5c-0.5-1-0.7-2.1-0.7-3.2c0-1.1,0.2-2.3,0.6-3.3l9.1-20.1c0.6-1.7,1.7-3.1,3.1-4.2
	c1.3-0.9,2.7-1.3,4.3-1.3c1.1,0,2.3,0.2,3.3,0.6c1,0.4,2,1,2.8,1.7c0.8,0.7,1.5,1.6,2,2.5c0.5,1,0.8,2.1,0.8,3.2
	c0,0.5,0,1.1-0.1,1.6c-0.1,0.6-0.3,1.1-0.5,1.7l-1,2.2h8.2L259,394.5c-0.4-1-0.7-2.1-0.6-3.2c0-1.1,0.3-2.2,0.8-3.2
	c0.5-1,1.2-1.8,2-2.5c1.7-1.5,3.9-2.3,6.1-2.3c1.5,0,3,0.4,4.3,1.3c1.4,1,2.5,2.5,3.1,4.1l18.2,43.8c0.3,0.5,0.4,1.1,0.5,1.7
	c0,0.5,0.1,1.1,0.2,1.6c0,1.1-0.3,2.2-0.8,3.2c-0.5,1-1.2,1.8-2,2.5c-0.8,0.7-1.8,1.3-2.9,1.6c-1.1,0.4-2.2,0.6-3.3,0.6
	c-3.3,0-5.8-1.8-7.3-5.4L276,435.4z"/>
</svg>
