<svg id="Layer_1" data-name="Layer 1" xmlns="http://www.w3.org/2000/svg" xmlns:xlink="http://www.w3.org/1999/xlink" viewBox="0 0 320 480"><defs><linearGradient id="linear-gradient" x1="-133.13" y1="680.7" x2="-133.13" y2="745.45" gradientTransform="matrix(8, 0, 0, -8, 1225, 5950)" gradientUnits="userSpaceOnUse"><stop offset="0" stop-color="#e93e3a"/><stop offset="0.35" stop-color="#ed683c"/><stop offset="0.7" stop-color="#f3903f"/><stop offset="1" stop-color="#fdc70c"/></linearGradient><linearGradient id="linear-gradient-3" x1="-141.13" y1="680.7" x2="-141.13" y2="745.45" xlink:href="#linear-gradient"/><linearGradient id="linear-gradient-4" x1="-125.13" y1="680.7" x2="-125.13" y2="745.45" xlink:href="#linear-gradient"/><linearGradient id="linear-gradient-6" x1="-139.63" y1="680.7" x2="-139.63" y2="745.45" xlink:href="#linear-gradient"/><linearGradient id="linear-gradient-7" x1="-124.13" y1="680.7" x2="-124.13" y2="745.45" xlink:href="#linear-gradient"/><linearGradient id="linear-gradient-8" x1="-132.13" y1="680.7" x2="-132.13" y2="745.45" xlink:href="#linear-gradient"/><linearGradient id="linear-gradient-9" x1="-123.13" y1="680.7" x2="-123.13" y2="745.45" xlink:href="#linear-gradient"/><linearGradient id="linear-gradient-10" x1="-131.63" y1="680.7" x2="-131.63" y2="745.45" xlink:href="#linear-gradient"/><linearGradient id="linear-gradient-11" x1="-127.13" y1="680.7" x2="-127.13" y2="745.45" xlink:href="#linear-gradient"/></defs><title>putralogo</title><g id="QR_Code-Smartphone-Scan-Code-QR_Scan" data-name="QR Code-Smartphone-Scan-Code-QR Scan"><path d="M272,0H48A48.05,48.05,0,0,0,0,48V432a48.05,48.05,0,0,0,48,48H272a48.05,48.05,0,0,0,48-48V48A48.05,48.05,0,0,0,272,0Zm32,432a32,32,0,0,1-32,32H48a32,32,0,0,1-32-32V48A32,32,0,0,1,48,16H272a32,32,0,0,1,32,32Z" style="fill:url(#linear-gradient)"/><path d="M136,32h48V48H136Z" style="fill:url(#linear-gradient)"/><path d="M80,184h32a8,8,0,0,0,8-8V144a8,8,0,0,0-8-8H80a8,8,0,0,0-8,8v32A8,8,0,0,0,80,184Zm8-32h16v16H88Z" style="fill:url(#linear-gradient-3)"/><path d="M240,136H208a8,8,0,0,0-8,8v32a8,8,0,0,0,8,8h32a8,8,0,0,0,8-8V144A8,8,0,0,0,240,136Zm-8,32H216V152h16Z" style="fill:url(#linear-gradient-4)"/><path d="M120,272a8,8,0,0,0-8-8H80a8,8,0,0,0-8,8v32a8,8,0,0,0,8,8h32a8,8,0,0,0,8-8Zm-16,24H88V280h16Z" style="fill:url(#linear-gradient-3)"/><path d="M88,232h16v16h16V232h24V216H128V200H112v16H88V200H72v48H88Z" style="fill:url(#linear-gradient-6)"/><path d="M232,296H216v16h24a8,8,0,0,0,8-8V280H232Z" style="fill:url(#linear-gradient-7)"/><path d="M176,280h8V264h-8V240H160v24H136v16h24v16H136v16h64V296H176Z" style="fill:url(#linear-gradient-8)"/><path d="M232,200h16v64H232Z" style="fill:url(#linear-gradient-9)"/><path d="M160,208h24v16H160Z" style="fill:url(#linear-gradient-10)"/><path d="M200,264h16v16H200Z" style="fill:url(#linear-gradient-11)"/><path d="M152,192h16v-8h16V168H168V152h16V136H136v16h16Z" style="fill:url(#linear-gradient)"/><path d="M200,208h16v40H200Z" style="fill:url(#linear-gradient-11)"/></g><path d="M52.44,419.85V433q0,8.57-8.41,8.57c-2.85,0-4.93-.7-6.22-2.11s-1.94-3.55-1.94-6.46V413.31c0-3.4.76-5.94,2.26-7.64s3.88-2.55,7.12-2.55H66.18c2.26,0,3.39-.83,3.39-2.5s-1.13-2.51-3.39-2.51H43.87a8.1,8.1,0,0,1-6-2.1q-2.1-2.1-2.1-6.3c0-2.75.63-4.82,1.9-6.23s3.3-2.1,6.1-2.1h21.5Q84,381.38,84,400.62T65.37,419.85Z" style="fill:#e26907"/><path d="M111.6,441.6q-22.95,0-22.95-26.51V389.71a8.8,8.8,0,0,1,.68-3.56,8,8,0,0,1,1.82-2.58A7.49,7.49,0,0,1,93.78,382a9.57,9.57,0,0,1,3.19-.53,8.73,8.73,0,0,1,5.86,2.11,7.62,7.62,0,0,1,2.47,6.14v27.88q0,7.52,6.71,7.52t6.78-7.52V389.71a7.65,7.65,0,0,1,2.47-6.1,8.53,8.53,0,0,1,5.78-2.15,8.91,8.91,0,0,1,5.9,2.11,7.55,7.55,0,0,1,2.5,6.14v25.38q0,26.51-23.11,26.51Z" style="fill:#e26907"/><path d="M154.36,398.11h-5.82a7.85,7.85,0,0,1-6.19-2.5,8.61,8.61,0,0,1-2.22-5.9,8.46,8.46,0,0,1,2.22-5.86,7.93,7.93,0,0,1,6.19-2.47h28a7.91,7.91,0,0,1,6.18,2.47,8.43,8.43,0,0,1,2.23,5.86,8.58,8.58,0,0,1-2.23,5.9,7.82,7.82,0,0,1-6.18,2.5h-5.66v35.16a7.62,7.62,0,0,1-2.46,6.14,8.72,8.72,0,0,1-5.86,2.11,9.53,9.53,0,0,1-3.19-.53,7.4,7.4,0,0,1-2.63-1.58,7.31,7.31,0,0,1-1.78-2.58,9.16,9.16,0,0,1-.64-3.56Z" style="fill:#e26907"/><path d="M194.69,421.63q-6.56-5.08-6.55-8.56,0-9.94,9.37-9.95h20.94c2.21,0,3.31-.83,3.31-2.5s-1.1-2.51-3.31-2.51H196.06a8.08,8.08,0,0,1-6-2.1q-2.1-2.1-2.1-6.3c0-2.75.63-4.82,1.9-6.23s3.3-2.1,6.1-2.1h21.58q18.66,0,18.67,19.24,0,18.75-17.7,19.23h-1.7l7.11,6.87a10.24,10.24,0,0,1,2.47,3.48,8.62,8.62,0,0,1,.77,3.15,7.26,7.26,0,0,1-.69,3,10,10,0,0,1-1.86,2.79,10.59,10.59,0,0,1-2.63,2.06,5.94,5.94,0,0,1-2.91.81q-3.32,0-7-3Z" style="fill:#e26907"/><path d="M272,433.43H250.78l-1.3,2.91a8.21,8.21,0,0,1-2.95,4.12,7.3,7.3,0,0,1-4.24,1.3,10.15,10.15,0,0,1-3.4-.57,8.93,8.93,0,0,1-2.86-1.61,7.66,7.66,0,0,1-2-2.51,7.07,7.07,0,0,1-.73-3.23,10.66,10.66,0,0,1,.56-3.32l9.06-20.12a8.75,8.75,0,0,1,3.07-4.16,7.38,7.38,0,0,1,4.28-1.34,9.2,9.2,0,0,1,3.31.61,8.69,8.69,0,0,1,2.83,1.7,8.93,8.93,0,0,1,2,2.54,6.73,6.73,0,0,1,.77,3.23,11.24,11.24,0,0,1-.12,1.58,5.61,5.61,0,0,1-.52,1.66l-1,2.18h8.17L255,392.54a8.3,8.3,0,0,1-.65-3.24,6.85,6.85,0,0,1,.77-3.23,8.49,8.49,0,0,1,2-2.5,9.59,9.59,0,0,1,6.14-2.27,7.55,7.55,0,0,1,4.29,1.3,8.61,8.61,0,0,1,3.07,4.12l18.18,43.8a4.82,4.82,0,0,1,.45,1.74,8.52,8.52,0,0,0,.2,1.58,6.85,6.85,0,0,1-.77,3.23,8.2,8.2,0,0,1-2,2.51,9,9,0,0,1-2.87,1.61,9.89,9.89,0,0,1-3.31.57q-5,0-7.28-5.42Z" style="fill:#e26907"/></svg>